<?xml version="1.0" standalone="no"?>
<!DOCTYPE svg PUBLIC "-//W3C//DTD SVG 1.1//EN" "http://www.w3.org/Graphics/SVG/1.1/DTD/svg11.dtd" >
<svg xmlns="http://www.w3.org/2000/svg" xmlns:xlink="http://www.w3.org/1999/xlink" version="1.1">
<metadata></metadata>
<defs>
<font id="bemboregular" horiz-adv-x="1067" >
<font-face units-per-em="2048" ascent="1536" descent="-512" />
<missing-glyph horiz-adv-x="569" />
<glyph horiz-adv-x="0" />
<glyph horiz-adv-x="0" />
<glyph unicode="&#xd;" horiz-adv-x="512" />
<glyph unicode=" "  horiz-adv-x="569" />
<glyph unicode="&#x09;" horiz-adv-x="569" />
<glyph unicode="&#xa0;" horiz-adv-x="569" />
<glyph unicode="!" horiz-adv-x="532" d="M162 72q0 43 29.5 69.5t74.5 26.5q43 0 74 -25.5t31 -70.5q0 -47 -31 -72t-74 -25q-45 0 -74.5 27t-29.5 70zM170 1286q-2 29 7 37t44 8h92q35 0 44.5 -10t4.5 -39l-75 -917h-41z" />
<glyph unicode="&#x22;" horiz-adv-x="831" d="M133 1196q0 47 27.5 78t72.5 31t73 -31t28 -78q0 -41 -9.5 -92t-15.5 -88l-51 -295h-49l-51 295q-6 37 -15.5 88t-9.5 92zM498 1196q0 47 27.5 78t72.5 31t72.5 -31t27.5 -78q0 -41 -9 -92t-15 -88l-51 -295h-50l-51 295q-6 37 -15 88t-9 92z" />
<glyph unicode="#" horiz-adv-x="1368" d="M94 369v88h232l84 405h-316v88h336l86 416h88l-86 -416h453l88 416h88l-88 -416h213v-88h-232l-84 -405h316v-88h-332l-88 -416h-88l88 416h-457l-88 -416h-88l88 416h-213zM414 457h454l84 405h-454z" />
<glyph unicode="$" horiz-adv-x="937" d="M53 211q0 29 20.5 49.5t47.5 20.5q39 0 55.5 -29t30.5 -67t37.5 -77.5t77.5 -64.5v584q-113 70 -172.5 139.5t-59.5 167.5q0 92 63.5 164.5t168.5 103.5v133h53v-127q70 10 137 0v127h53v-133q113 -33 176.5 -80t63.5 -100q0 -27 -17.5 -45.5t-42.5 -18.5t-42 15.5 t-34.5 40t-41 56.5t-62.5 65v-473q88 -55 144.5 -98.5t89 -84.5t45 -83t12.5 -93q0 -117 -74.5 -197.5t-216.5 -117.5v-197h-53v182q-35 -4 -72 -3t-65 5v-184h-53v197q-55 12 -103.5 34.5t-85.5 52t-58.5 64.5t-21.5 72zM203 1006q0 -53 26.5 -97.5t92.5 -91.5v342 q-53 -18 -86 -60t-33 -93zM375 29q47 -20 137 -15v492l-137 94v-571zM375 782l137 -96v467q-31 18 -68.5 18t-68.5 -4v-385zM565 29q168 74 168 225q0 33 -8 59.5t-26.5 52t-51.5 53t-82 60.5v-450z" />
<glyph unicode="%" horiz-adv-x="1472" d="M47 958q0 74 20.5 136.5t55.5 109.5t83 74t103 27t103.5 -27t84 -74t56 -109.5t20.5 -136.5t-20.5 -136t-56 -109t-83.5 -74t-104 -27q-55 0 -103 27t-83 74t-55.5 109t-20.5 136zM162 958q0 -315 147 -315q150 0 150 315t-150 316q-147 -1 -147 -316zM195 -55l995 1394 h84l-993 -1394h-86zM899 332q0 74 20.5 136t55.5 109.5t83 74t103 26.5t103.5 -26.5t84 -74t56 -109.5t20.5 -136t-20.5 -136.5t-56 -109.5t-83.5 -73.5t-104 -26.5q-55 0 -103 26.5t-83 73.5t-55.5 109.5t-20.5 136.5zM1014 332q0 -315 147 -316q150 0 150 316 q0 315 -150 315q-147 0 -147 -315z" />
<glyph unicode="&#x26;" horiz-adv-x="1492" d="M84 309q0 127 83 215t275 166q-66 57 -105.5 129t-39.5 137q0 109 76 173.5t202 64.5q115 0 188 -55.5t73 -143.5q0 -72 -59.5 -138t-172.5 -122q100 -68 191.5 -160t165.5 -202q37 45 80.5 106.5t82.5 120.5t66 108.5t27 69.5q0 23 -23 32t-90 9v37h362v-37 q-86 0 -118.5 -8t-55.5 -31q-14 -14 -41.5 -59t-65.5 -106.5t-88 -133t-112 -143.5q43 -66 72.5 -120t55.5 -94t53.5 -61.5t64.5 -21.5q59 0 160 70l18 -33q-135 -106 -252 -107q-47 0 -80 10.5t-62.5 39t-59 77.5t-72.5 127q-115 -123 -236 -188.5t-231 -65.5 q-70 0 -130.5 26t-105.5 72t-70.5 107.5t-25.5 132.5zM252 334q0 -117 68.5 -188.5t179.5 -71.5q45 0 94 14t97 39t92 59.5t77 73.5q-68 115 -164 215t-225 191q-117 -82 -168 -159t-51 -173zM426 1006q0 -131 152 -246q72 41 102.5 92t30.5 129t-41 125t-109 47 q-63 0 -99 -40t-36 -107z" />
<glyph unicode="'" horiz-adv-x="362" d="M82 1196q0 47 27.5 78t72.5 31t73 -31t28 -78q0 -41 -9.5 -92t-15.5 -88l-51 -295h-49l-52 295q-6 37 -15 88t-9 92z" />
<glyph unicode="(" horiz-adv-x="618" d="M174 455q0 135 25.5 252.5t72.5 226t115 211t152 207.5l57 -52q-78 -102 -136.5 -197t-96 -194.5t-57 -210t-19.5 -243.5t19.5 -244t57 -210t96 -194.5t136.5 -197.5l-57 -51q-84 104 -152 206.5t-115 211t-72.5 226t-25.5 253.5z" />
<glyph unicode=")" horiz-adv-x="618" d="M23 -391q78 102 136 197.5t96 194.5t57.5 210t19.5 244t-19.5 243.5t-57.5 210t-96.5 194.5t-135.5 197l57 52q84 -104 151.5 -207t114.5 -211.5t72.5 -226t25.5 -252.5t-25.5 -253t-72.5 -226.5t-114.5 -211t-151.5 -206.5z" />
<glyph unicode="*" horiz-adv-x="1044" d="M55 997l17 58l352 -45l70 348h63l64 -348l352 45l18 -58l-313 -172l156 -323l-56 -37l-256 237l-254 -237l-53 37l154 323z" />
<glyph unicode="+" horiz-adv-x="1366" d="M145 610v90h492v492h90v-492h494v-90h-494v-493h-90v493h-492z" />
<glyph unicode="," horiz-adv-x="532" d="M139 68q0 41 32 70.5t79 29.5q61 0 102 -48t41 -122q0 -96 -62.5 -179t-164.5 -122l-14 37q158 92 157 205q0 18 -6 30.5t-22 12.5q-14 0 -23.5 -3.5t-26.5 -3.5q-41 0 -66.5 26t-25.5 67z" />
<glyph unicode="-" horiz-adv-x="811" d="M72 350v103h667v-103h-667z" />
<glyph unicode="." horiz-adv-x="532" d="M162 72q0 43 29.5 69.5t74.5 26.5q43 0 74 -25.5t31 -70.5q0 -47 -31 -72t-74 -25q-45 0 -74.5 27t-29.5 70z" />
<glyph unicode="/" horiz-adv-x="937" d="M94 -29l662 1334h88l-662 -1334h-88z" />
<glyph unicode="0" horiz-adv-x="1003" d="M76 637q0 145 34.5 267t93 211t136.5 139.5t162 50.5q90 0 168 -54.5t135 -146.5t90 -213t33 -254q0 -141 -34 -263t-92.5 -211t-136 -140.5t-163.5 -51.5q-80 0 -157 47.5t-136 135.5t-96 210.5t-37 272.5zM229 637q0 -150 13.5 -266.5t45 -196.5t84 -122t130.5 -42 q84 0 136 44t83 126t42 198t11 259q0 135 -11 251t-41 199.5t-83 131t-137 47.5q-80 0 -132.5 -46t-84 -129t-44 -199t-12.5 -255z" />
<glyph unicode="1" horiz-adv-x="1003" d="M182 1001q45 31 96.5 72t99.5 84t86 82t56 66h72v-1188q0 -47 14.5 -62.5t61.5 -15.5h114v-39h-516v39h111q49 0 63.5 16.5t14.5 63.5v1022q-25 -20 -57.5 -45t-67.5 -47.5t-69 -43t-62 -32.5z" />
<glyph unicode="2" horiz-adv-x="1003" d="M61 0v33q90 117 204 223t213.5 211.5t167 215.5t67.5 230q0 57 -20.5 107.5t-57.5 87.5t-86 58.5t-107 21.5q-111 0 -198.5 -76t-122.5 -201h-33q10 88 44 160t89 124t127 81t154 29q80 0 149.5 -28t119.5 -76t79 -114.5t29 -144.5q0 -180 -148 -328q-20 -20 -66.5 -57 t-114 -94t-157.5 -139t-200 -197h538q41 0 66.5 7t42 24.5t27 48.5t20.5 80h33l-39 -287h-820z" />
<glyph unicode="3" horiz-adv-x="1003" d="M70 117q0 29 19.5 49t43.5 20q35 0 67.5 -24.5t69.5 -55t80 -55t99 -24.5q59 0 113 29.5t94 80.5t63.5 118t23.5 142q0 59 -17 111.5t-47 91.5t-71 60.5t-88 21.5q-72 0 -143 -55l-19 28q129 106 204 188.5t75 168.5q0 78 -57.5 133t-141.5 55q-78 0 -153.5 -54 t-118.5 -147l-37 15q53 135 154.5 213t224.5 78q57 0 105.5 -17.5t84 -48.5t56 -72t20.5 -90q0 -78 -54 -153.5t-157 -135.5l4 -4q72 6 131.5 -18.5t104.5 -70.5t69.5 -109.5t24.5 -134.5q0 -94 -42 -181.5t-113.5 -154t-166 -105.5t-196.5 -39q-61 0 -117.5 11.5t-99.5 32 t-67.5 47t-24.5 55.5z" />
<glyph unicode="4" horiz-adv-x="1003" d="M72 373v47l604 885h57v-830h205v-102h-205v-402h-137v402h-524zM168 475h428v635h-4z" />
<glyph unicode="5" horiz-adv-x="1003" d="M96 100q0 27 19.5 45.5t48.5 18.5q41 0 71.5 -22.5t60.5 -49t63.5 -49.5t82.5 -23q57 0 108.5 28t89.5 75t60.5 109.5t22.5 132.5q0 72 -22.5 131t-63.5 102t-97.5 67.5t-121.5 24.5q-57 0 -113.5 -20.5t-103.5 -55.5l-21 15l29 649h485q29 0 40 6t20 21h39l-23 -160 h-518l-16 -369q94 51 221 51q86 0 162.5 -33.5t133 -90t90.5 -133t34 -162.5q0 -92 -37 -172t-101.5 -138.5t-152.5 -92.5t-191 -34q-61 0 -115.5 10.5t-95.5 28t-64.5 41t-23.5 49.5z" />
<glyph unicode="6" horiz-adv-x="1003" d="M92 504q0 141 47 267t135 229.5t216 181.5t288 123l23 -31q-242 -98 -371 -252t-164 -379q84 66 149.5 92.5t141.5 26.5t141.5 -30t114.5 -81t78 -119.5t29 -146.5q0 -84 -32 -159.5t-86 -132t-127 -89.5t-155 -33q-94 0 -173 39t-135 109.5t-88 169t-32 215.5zM246 463 q0 -129 25.5 -216t65.5 -141.5t89 -77t98 -22.5q109 0 175.5 93.5t66.5 267.5q0 166 -67.5 256t-172.5 90q-41 0 -108.5 -23.5t-161.5 -99.5q-4 -23 -7 -48.5t-3 -78.5z" />
<glyph unicode="7" horiz-adv-x="1003" d="M76 1022l14 252h811v-43l-500 -1260h-112l495 1170h-563q-59 0 -80.5 -20.5t-31.5 -98.5h-33z" />
<glyph unicode="8" horiz-adv-x="1003" d="M102 307q0 217 297 336q-145 66 -212.5 145.5t-67.5 184.5q0 68 29.5 128t81 105t120 72t144.5 27q78 0 144.5 -22.5t116.5 -62.5t78.5 -94.5t28.5 -115.5q0 -193 -266 -299q162 -72 234.5 -158t72.5 -205q0 -80 -30.5 -148.5t-85 -119.5t-128 -80t-159.5 -29 q-82 0 -155 27t-127 72t-85 106.5t-31 130.5zM231 311q0 -66 20.5 -121t56.5 -96t86 -63.5t108 -22.5q57 0 106 21.5t86 59.5t57.5 90.5t20.5 111.5q0 102 -77 176t-255 156q-209 -113 -209 -312zM240 1036q0 -43 13 -79.5t50 -73.5t100.5 -74t163.5 -80q172 109 172 283 q0 111 -69.5 183.5t-177.5 72.5q-53 0 -99.5 -18.5t-80 -49.5t-53 -73t-19.5 -91z" />
<glyph unicode="9" horiz-adv-x="1003" d="M84 891q0 84 31.5 159.5t86 132t127 89.5t154.5 33q94 0 173 -39t135.5 -110t88 -169t31.5 -215q0 -141 -47 -267t-135 -229.5t-216 -181.5t-288 -123l-22 31q242 98 370.5 252t163.5 379q-84 -66 -149.5 -92.5t-141.5 -26.5t-141 29.5t-114.5 81t-78 120t-28.5 146.5z M238 911q0 -168 68.5 -258t170.5 -90q49 0 126 33t145 92q4 20 7 47t3 78q0 127 -24.5 214t-64.5 141.5t-90.5 78t-99.5 23.5q-111 0 -176 -93.5t-65 -265.5z" />
<glyph unicode=":" horiz-adv-x="532" d="M162 72q0 43 29.5 69.5t74.5 26.5q43 0 74 -25.5t31 -70.5q0 -47 -31 -72t-74 -25q-45 0 -74.5 27t-29.5 70zM162 735q0 43 29.5 69.5t74.5 26.5q43 0 74 -25.5t31 -70.5q0 -47 -31 -71.5t-74 -24.5q-45 0 -74.5 26.5t-29.5 69.5z" />
<glyph unicode=";" horiz-adv-x="532" d="M139 68q0 41 32 70.5t79 29.5q61 0 102 -48t41 -122q0 -96 -62.5 -179t-164.5 -122l-14 37q158 92 157 205q0 18 -6 30.5t-22 12.5q-14 0 -23.5 -3.5t-26.5 -3.5q-41 0 -66.5 26t-25.5 67zM168 735q0 43 29.5 69.5t74.5 26.5q43 0 74 -25.5t31 -70.5q0 -47 -31 -71.5 t-74 -24.5q-45 0 -74.5 26.5t-29.5 69.5z" />
<glyph unicode="&#x3c;" horiz-adv-x="1366" d="M145 614v82l1074 455v-102l-951 -394l951 -393v-102z" />
<glyph unicode="=" horiz-adv-x="1366" d="M145 475v90h1076v-90h-1076zM145 846v90h1076v-90h-1076z" />
<glyph unicode="&#x3e;" horiz-adv-x="1366" d="M147 160v102l951 393l-951 394v102l1074 -455v-82z" />
<glyph unicode="?" horiz-adv-x="724" d="M104 1200q0 41 40.5 68.5t138.5 27.5q74 0 138 -25.5t112.5 -72.5t76 -113.5t27.5 -150.5q0 -96 -27.5 -156.5t-68.5 -98.5t-88 -58.5t-88 -37t-69 -37t-28 -54.5q0 -39 21.5 -76t56.5 -72h-45q-41 45 -70.5 101.5t-29.5 109.5q0 59 28.5 94t71.5 56.5t93 39t93 42 t72 64.5t29 107q0 92 -58.5 137.5t-150.5 45.5q-49 0 -89 -7.5t-69 -7.5q-43 0 -80 15.5t-37 58.5zM213 72q0 43 29.5 69.5t74.5 26.5q43 0 74 -25.5t31 -70.5q0 -47 -31 -72t-74 -25q-45 0 -74.5 27t-29.5 70z" />
<glyph unicode="@" horiz-adv-x="1878" d="M96 444q0 207 74 385.5t202 310.5t300 207.5t370 75.5q160 0 292 -50t225.5 -140t145.5 -216t52 -280q0 -111 -33.5 -235.5t-102.5 -229t-172 -173t-243 -68.5q-154 0 -153 137q0 33 3 62.5t13 80.5l-4 4q-104 -137 -201.5 -210.5t-187.5 -73.5q-39 0 -72 18.5t-57.5 49 t-38.5 72.5t-14 91q0 117 54 242t136 226t178 167t182 66q53 0 107.5 -31t65.5 -107h4l30 111l158 20l-178 -608q-35 -117 -32 -180.5t77 -63.5q70 0 144.5 50.5t136 137.5t100.5 206.5t39 257.5q0 135 -48.5 248.5t-134.5 195.5t-204.5 128t-259.5 46q-201 0 -360 -83 t-269.5 -218t-170 -306t-59.5 -347t57.5 -323.5t162 -254t249 -165t316.5 -58.5q274 0 481 142.5t322 410.5h57q-39 -135 -123 -247.5t-198.5 -194.5t-254 -127t-290.5 -45q-188 0 -348 66.5t-277 185t-182.5 281.5t-65.5 353zM647 293q0 -59 35 -100t82 -41q63 0 136 53 t135.5 141t104.5 198.5t42 225.5q0 63 -35 103t-90 40q-70 0 -142.5 -69.5t-132 -167.5t-97.5 -203.5t-38 -179.5z" />
<glyph unicode="A" horiz-adv-x="1386" d="M8 0v39q49 0 81 7t55.5 28.5t42 60.5t42.5 107l373 1018l-18 45h178l428 -1137q31 -82 70.5 -105.5t115.5 -23.5v-39h-563v39h53q88 0 124 13.5t36 56.5q0 25 -8 46t-14 38l-138 372h-424l-118 -321q-10 -29 -25.5 -68t-15.5 -61q0 -41 39.5 -58.5t126.5 -17.5h32v-39 h-473zM477 655h354l-180 478z" />
<glyph unicode="B" horiz-adv-x="1300" d="M0 0v39h47q63 0 102 8t60.5 27.5t30 51.5t8.5 81v850q0 43 -4 76.5t-20.5 56t-48.5 34t-85 11.5h-72v39q23 0 57 2t71.5 4t72.5 4t57 2q43 2 90.5 3t91.5 2t77.5 1h48.5q135 0 245.5 -19.5t165.5 -60.5q63 -45 94 -99t31 -128q0 -88 -64.5 -159.5t-168.5 -90.5v-4 q145 -43 225 -132t80 -210q0 -61 -22.5 -128.5t-75 -126t-137.5 -96.5t-207 -38h-750zM418 266q0 -117 52 -164t181 -47q102 0 169 29t107 75t56 105.5t16 118.5t-22.5 116.5t-67.5 102.5t-112.5 72.5t-157.5 27.5h-221v-436zM418 741h223q295 0 295 238q0 53 -17.5 103.5 t-57.5 88t-104.5 60t-158.5 22.5q-35 0 -88 -2t-92 -4v-506z" />
<glyph unicode="C" horiz-adv-x="1492" d="M106 621q0 150 54.5 274.5t153 215.5t233.5 142.5t295 51.5q96 0 166.5 -12.5t122 -28t85 -28.5t58.5 -13q29 0 37 12h30l19 -297h-39q-51 143 -175 229t-292 86q-129 0 -231.5 -44t-174 -122.5t-110.5 -187t-39 -237.5q0 -139 46 -257t126 -204t184.5 -134.5 t221.5 -48.5q61 0 126.5 12.5t131 46.5t128 93t113.5 152h39q-20 -70 -57 -155t-74 -144q-22 3 -43 3q-26 0 -50 -4q-44 -8 -96.5 -20t-118 -23.5t-155.5 -11.5q-156 0 -287 49.5t-226 136.5t-148.5 206.5t-53.5 261.5z" />
<glyph unicode="D" horiz-adv-x="1556" d="M31 0v39h35q84 0 122.5 29.5t38.5 119.5v881q0 100 -32.5 133t-122.5 33h-41v39q57 4 129.5 6t158.5 6t175.5 5t169.5 1q203 0 350 -48t242.5 -131t141.5 -194.5t46 -238.5q0 -117 -45 -237.5t-139.5 -219t-236.5 -161t-337 -62.5h-655zM397 152q0 -31 3 -52.5t19.5 -35 t50.5 -19.5t95 -6q102 0 178 8t135.5 27.5t107.5 51.5t95 79q29 29 58.5 70.5t54.5 98t41 125t16 148.5q0 115 -35.5 231.5t-128.5 208.5q-35 35 -80.5 66t-109 53.5t-145.5 34.5t-191 12q-63 0 -104 -3t-60 -5v-1093z" />
<glyph unicode="E" horiz-adv-x="1216" d="M6 0v39h57q61 0 99.5 9t59 28.5t27.5 52.5t7 78v864q0 86 -30.5 125t-133.5 39h-45v39h983l17 -285h-37q-10 66 -24.5 107t-34 64.5t-42 31.5t-51.5 8h-432v-504h367q55 0 82.5 32t35.5 122h39v-389h-39q-6 55 -16 87t-27.5 48t-41 21.5t-54.5 5.5h-346v-437 q0 -72 26.5 -92t84.5 -20h315q53 0 90 11t63.5 38t46 72t38.5 110h36l-32 -305h-1088z" />
<glyph unicode="F" horiz-adv-x="1087" d="M88 1235v39h918v-242h-35q-2 90 -38 129t-132 39h-389v-481h405q111 0 119 131h35v-361h-35q-4 90 -38 123t-107 33h-379v-448q0 -43 6 -73t25.5 -49.5t54 -27.5t92.5 -8v-39h-498v39q47 4 77 12t46 29.5t21.5 59.5t5.5 100v802q0 49 -4.5 85t-19.5 59.5t-46 36t-84 12.5 z" />
<glyph unicode="G" horiz-adv-x="1515" d="M117 612q0 115 41 238t129 224.5t223 166t321 64.5q82 0 150 -11.5t120 -24t87 -23.5t51 -11q31 0 47 14h29v-331h-41q-20 96 -62.5 160.5t-97.5 103.5t-121.5 55t-138.5 16q-135 0 -237.5 -52t-170 -139t-102.5 -200.5t-35 -236.5q0 -158 50.5 -272.5t127 -188.5 t171 -110t182.5 -36q72 0 149.5 17.5t163.5 60.5v258q0 88 -36 122t-128 34h-76v37h553v-37q-78 -4 -110.5 -34t-32.5 -95v-285q-76 -39 -159 -64.5t-158.5 -40t-137 -19.5t-94.5 -5q-168 0 -292 58.5t-204.5 151.5t-120.5 208t-40 227z" />
<glyph unicode="H" horiz-adv-x="1622" d="M61 0v39h13q92 0 127 30.5t35 118.5v902q0 80 -31 109.5t-117 35.5v39h487v-39q-55 0 -87.5 -8t-51 -30.5t-24.5 -60.5t-6 -98v-356h802v403q0 82 -32.5 116t-128.5 34h-39v39h526v-39q-92 -4 -124 -38t-32 -130v-850q0 -109 36 -143.5t128 -34.5h21v-39h-580v39h64 q100 0 130.5 37t30.5 117v415h-802v-389q0 -100 30.5 -140t132.5 -40h6v-39h-514z" />
<glyph unicode="I" horiz-adv-x="681" d="M92 0v39q47 2 78 10t47 28.5t22.5 53.5t6.5 84v872q0 84 -34 114t-120 34v39h498v-39q-96 0 -135 -32t-39 -134v-868q0 -90 33.5 -126t140.5 -36v-39h-498z" />
<glyph unicode="J" horiz-adv-x="618" d="M-223 -367q0 33 21.5 57.5t51.5 24.5q27 0 50.5 -15t49 -32.5t52.5 -33t59 -15.5q74 0 121 65.5t47 235.5v1094q0 68 -5 110.5t-22.5 67.5t-50 34t-88.5 9h-22v39h518v-39q-98 -2 -129 -35t-31 -115v-874q0 -154 -30.5 -281t-86 -218t-133 -140t-174.5 -49 q-86 0 -142 31.5t-56 78.5z" />
<glyph unicode="K" horiz-adv-x="1429" d="M39 0v39h37q98 0 131 36t33 113v899q0 92 -41 120t-123 28h-37v39h553v-39h-19q-92 0 -127.5 -35t-35.5 -127v-442q59 6 111 35.5t118 95.5q59 59 111.5 121.5t91.5 118t60.5 100.5t21.5 69q0 35 -29 49.5t-113 14.5v39h539v-39q-109 -2 -166 -19.5t-104 -64.5 q-25 -25 -61 -80t-86 -123.5t-115.5 -143.5t-145.5 -136q29 -4 62.5 -32t101.5 -95q162 -162 254 -276.5t143 -166.5q27 -27 75 -43t153 -16v-39h-601v39q72 2 103 15.5t31 41.5q0 12 -10.5 34t-38 57.5t-76.5 89t-127 131.5q-61 61 -103.5 99t-76 58.5t-61.5 25.5t-62 1 v-383q0 -98 33.5 -134t129.5 -36h27v-39h-561z" />
<glyph unicode="L" horiz-adv-x="1130" d="M41 0v39h68q72 0 100.5 28.5t28.5 106.5v907q0 82 -32 118t-130 36h-29v39h604v-39h-76q-49 0 -81.5 -4t-52 -18.5t-26.5 -43t-7 -75.5v-944q0 -41 18 -58.5t63 -17.5h302q45 0 77.5 10t62.5 35.5t63.5 68.5t82.5 111h37l-158 -299h-915z" />
<glyph unicode="M" horiz-adv-x="1878" d="M27 0v39q55 0 89 8t52 31.5t25.5 66.5t11.5 113l49 797q3 41 3 70v13q-1 32 -13.5 53t-39 31.5t-73.5 12.5v37h309l494 -1032l491 1032h301v-37q-76 -7 -108 -17q-28 -9 -27 -52v-11l66 -928q4 -70 11 -108.5t25.5 -56t52.5 -20.5t89 -3v-39h-526v39q37 0 70.5 6t59 21.5 t41.5 41.5q12 20 12 50q0 8 -1 16l-59 918h-5l-509 -1092h-48l-522 1092h-4l-55 -922v-11q0 -33 10 -53q12 -24 34.5 -38.5t53.5 -20.5t66 -8v-39h-426z" />
<glyph unicode="N" horiz-adv-x="1665" d="M61 0v39h9q96 0 132 32.5t36 104.5v1008q-70 49 -172 51v39h321l965 -1006v815q0 47 -8.5 76t-31 45.5t-61.5 22.5t-100 8v39h479v-39q-115 0 -150.5 -23.5t-35.5 -83.5v-1142h-53l-1061 1110v-879q0 -55 8 -90t30.5 -54.5t62.5 -26.5t106 -7v-39h-476z" />
<glyph unicode="O" horiz-adv-x="1685" d="M109 608q0 154 55 282t155.5 220t237.5 143.5t301 51.5q145 0 275.5 -47.5t228.5 -131.5t156.5 -199.5t58.5 -254.5q0 -156 -58.5 -285t-157.5 -222t-231.5 -145.5t-281.5 -52.5q-150 0 -285 46t-235.5 131t-159.5 203t-59 261zM301 672q0 -143 46 -263t126 -207 t187.5 -135.5t230.5 -48.5q125 0 218 50.5t154.5 133.5t91 188t29.5 214q0 143 -43 262t-119.5 205t-183 134t-233.5 48q-135 0 -230.5 -56t-157 -142t-89 -188.5t-27.5 -194.5z" />
<glyph unicode="P" horiz-adv-x="1153" d="M41 1235v39q43 2 112.5 5t145.5 7t144.5 5t109.5 1q160 0 262.5 -34.5t160.5 -88t80.5 -117t22.5 -122.5q0 -90 -34.5 -163t-99 -123t-156 -77.5t-205.5 -27.5q-47 0 -87 3t-87 13v-358q0 -86 32.5 -122t130.5 -36h68v-39h-567v39h28q80 0 109 23.5t29 95.5v968 q0 57 -21.5 83t-75.5 26h-102zM410 594q20 -4 51 -10t59 -6q84 0 151.5 26.5t116 74.5t74 113.5t25.5 143.5q0 59 -14.5 116.5t-51.5 102.5t-102.5 71.5t-167.5 26.5q-35 0 -70 -1t-71 -7v-651z" />
<glyph unicode="Q" horiz-adv-x="1685" d="M109 616q0 147 56 273.5t156.5 218.5t235.5 144.5t293 52.5q147 0 279.5 -46.5t231.5 -130.5t157.5 -201.5t58.5 -260.5q0 -119 -38 -228.5t-109.5 -198.5t-172 -155t-227.5 -96v-4q90 -33 161 -91.5t138.5 -117t142 -101.5t168.5 -45l-32 -43q-25 -6 -46.5 -9t-48.5 -3 q-121 0 -213 47t-172.5 111.5t-161.5 131t-180 105.5q-145 10 -269 61.5t-215 136.5t-142 199.5t-51 249.5zM301 672q0 -143 46 -263t126 -206t187.5 -134.5t230.5 -48.5q125 0 218 50.5t154.5 132.5t91 187t29.5 214q0 143 -43 262t-119.5 205t-183 134t-233.5 48 q-135 0 -230.5 -56t-157 -142t-89 -188.5t-27.5 -194.5z" />
<glyph unicode="R" horiz-adv-x="1642" d="M39 0v39h35q92 0 128 32.5t36 137.5v862q0 96 -32 130t-122 34h-45v39q18 0 49 1t66.5 3t73.5 4t69 4t56.5 3t54 2t63.5 1h84q141 0 244.5 -27.5t171 -76.5t100.5 -115.5t33 -144.5q0 -117 -73 -206t-200 -126q57 -45 109.5 -93t124.5 -120l162 -162q92 -92 188 -145 t215 -62v-37q-46 -2 -87 -2q-79 -1 -138 7q-90 12 -157.5 42.5t-125 80t-125.5 116.5l-135 135q-68 68 -121 113t-90 70q-39 -2 -68.5 -3t-70.5 -1q-35 0 -57.5 1t-46.5 3v-346q0 -92 38.5 -123t124.5 -31h47v-39h-579zM408 578q37 -4 64.5 -4.5t62.5 -0.5q170 0 273 79 t103 263q0 72 -18.5 133.5t-64.5 107.5t-122.5 71.5t-195.5 25.5h-51.5t-50.5 -4v-671z" />
<glyph unicode="S" horiz-adv-x="1003" d="M90 311h39q33 -137 129 -212.5t217 -75.5q51 0 102.5 15t91.5 45t64.5 75t24.5 106q0 74 -49.5 132.5t-122 111.5t-157.5 104.5t-157.5 108.5t-122 127t-49.5 160q0 63 28 117.5t77 94.5t115.5 62.5t144.5 22.5q66 0 106.5 -8.5t70.5 -17.5t52.5 -17.5t48.5 -8.5 q23 0 37 21h33l35 -260h-35q-43 111 -133 176t-197 65q-102 0 -165.5 -53t-63.5 -139q0 -72 49 -129t122 -109.5t158 -102.5t157.5 -108.5t121.5 -130t49 -166.5q0 -76 -31.5 -139t-87 -110.5t-132 -74t-166.5 -26.5q-43 0 -88.5 8.5t-85 19.5t-70.5 19.5t-41 8.5 q-27 0 -41 -23h-35z" />
<glyph unicode="T" horiz-adv-x="1386" d="M66 973l32 332h39q2 -18 23 -25q18 -6 41 -6h985q23 0 41 6t22 25h39l33 -332h-37q-12 68 -25.5 111.5t-31 69.5t-40 36t-52.5 10h-357v-1012q0 -84 34 -116.5t128 -32.5h76v-39h-645v39h75q94 0 128 32.5t34 116.5v1012h-356q-31 0 -53.5 -10t-40 -36t-30.5 -70 t-26 -111h-36z" />
<glyph unicode="U" horiz-adv-x="1622" d="M37 1235v39h526v-39h-18q-86 0 -124 -29.5t-38 -120.5v-569q0 -209 119 -325.5t348 -116.5q86 0 170 20.5t150.5 71.5t106.5 136t40 216v477q0 74 -7 119t-28.5 71.5t-61.5 37t-104 12.5v39h481v-39q-104 -2 -145 -46t-41 -142v-553q0 -94 -31.5 -188.5t-104.5 -170.5 t-188.5 -122t-281.5 -46q-147 0 -258 40t-184.5 108.5t-111.5 163t-38 204.5v598q0 49 -8 79t-27.5 46.5t-53.5 22.5t-87 6z" />
<glyph unicode="V" horiz-adv-x="1409" d="M8 1235v39h563v-39q-141 -4 -182 -37q-24 -19 -24 -52q0 -23 12 -52l368 -918l324 846q35 88 35 127q0 47 -43 66.5t-148 19.5v39h476v-39q-80 0 -127.5 -40t-83.5 -136l-422 -1092h-103l-444 1108q-18 49 -34.5 80t-38 48.5t-51.5 24.5t-77 7z" />
<glyph unicode="W" horiz-adv-x="2048" d="M2 1235v39h530v-39h-34q-72 0 -98 -32q-13 -16 -14 -41q0 -24 13 -56l373 -938l221 547l-166 403q-31 76 -80 96.5t-131 20.5v39h840v-39q-96 0 -137 -24.5t-66 -84.5l-131 -319l269 -639l362 950q12 30 12 51q0 24 -15 37q-28 25 -140 29v39h424v-39q-47 0 -78 -6 t-53.5 -26.5t-42 -56.5t-41.5 -97l-412 -1082h-98l-269 633l-258 -633h-100l-426 1090q-23 59 -45.5 94t-50 53.5t-62.5 24.5t-84 6h-12zM971.5 1217.5q-17.5 -17.5 1.5 -58.5l102 -237l92 225q11 26 11 44q0 44 -62 44h-86q-41 0 -58.5 -17.5z" />
<glyph unicode="X" horiz-adv-x="1536" d="M18 0v39q53 4 93.5 15.5t78 35t77.5 64.5t93 104l318 383l-318 399q-47 59 -83.5 97.5t-73.5 59t-80 28.5t-105 10v39h611v-39q-68 0 -105 -7t-49 -23.5t-4 -39t33 -53.5l278 -344l222 264q92 111 92 157t-84 46h-60v39h492v-39q-102 0 -180 -49t-168 -160l-262 -321 l385 -480q45 -55 76.5 -90t64.5 -54.5t73 -27.5t97 -14v-39h-565v39q109 1 129 33q4 7 4 15q0 36 -62 114l-307 379l-326 -392q-51 -62 -51 -100q0 -6 1 -10q9 -38 112 -39h41v-39h-488z" />
<glyph unicode="Y" horiz-adv-x="1449" d="M-4 1235v39h545v-39q-119 0 -137 -31q-4 -8 -4 -20q0 -30 32 -82l328 -506l289 491q31 55 31 87q0 19 -10 30q-28 31 -126 31v39h463v-39q-104 -8 -158.5 -49t-97.5 -113l-340 -575v-308q0 -82 35 -116.5t129 -34.5h26v-39h-563v39h39q96 0 130 36t34 111v289l-365 569 q-37 59 -66.5 96.5t-60 58t-67.5 27.5t-86 9z" />
<glyph unicode="Z" horiz-adv-x="1386" d="M82 0v47l919 1153h-608q-49 0 -83 -9t-55.5 -32.5t-32.5 -65.5t-17 -108h-37l10 289h1055v-47l-926 -1153h725q57 0 92 15t57.5 51t37 92.5t32.5 138.5h37l-24 -371h-1182z" />
<glyph unicode="[" horiz-adv-x="618" d="M209 -438v1773h395v-41h-145q-70 0 -91.5 -19.5t-21.5 -60.5v-1531q0 -41 21.5 -60.5t91.5 -19.5h145v-41h-395z" />
<glyph unicode="\" horiz-adv-x="937" d="M94 1305h88l662 -1334h-88z" />
<glyph unicode="]" horiz-adv-x="618" d="M14 -397h146q70 0 91 19.5t21 60.5v1531q0 41 -21.5 60.5t-90.5 19.5h-146v41h396v-1773h-396v41z" />
<glyph unicode="^" horiz-adv-x="960" d="M37 659l428 717h31l428 -717h-95l-350 586l-348 -586h-94z" />
<glyph unicode="_" horiz-adv-x="1024" d="M-16 -154h1056v-102h-1056v102z" />
<glyph unicode="`" horiz-adv-x="681" d="M143 1290q0 27 17.5 43.5t46.5 16.5q31 0 65.5 -25t65.5 -65l188 -261h-26l-217 146q-74 49 -107 83t-33 62z" />
<glyph unicode="a" horiz-adv-x="811" d="M74 143q0 47 19.5 80t52 55.5t76.5 38t93 27.5q33 8 81 26.5t102 51.5v162q0 43 -4.5 71.5t-30.5 59.5q-20 25 -50 42t-65 17q-51 0 -89 -33.5t-38 -66.5q0 -16 10 -39l-139 -68q-6 18 -6 29q0 27 28.5 68t72.5 78.5t98.5 64.5t103.5 27q47 0 109.5 -25t105.5 -84 q12 -16 18.5 -30.5t9.5 -34t3 -45v-66.5v-275q0 -61 1 -100t6 -61.5t15.5 -30.5t30.5 -8q16 0 39 6t61 39l11 -31q-84 -68 -130 -90.5t-73 -22.5q-31 0 -49.5 15.5t-28.5 35t-13 41t-3 33.5q-53 -43 -89 -68.5t-61.5 -37.5t-46 -15.5t-41.5 -3.5q-90 0 -140 46.5t-50 121.5z M205 168q0 -55 37 -88t84 -33q12 0 24 3t30.5 12.5t46.5 26.5t71 48v244q-29 -16 -56.5 -28.5t-64.5 -28.5q-47 -18 -80 -34t-53.5 -32t-29.5 -37.5t-9 -52.5z" />
<glyph unicode="b" horiz-adv-x="1024" d="M12 1257v35l246 84h33v-686q111 78 181.5 111t127.5 33q68 0 129.5 -32t107.5 -85t72.5 -126t26.5 -153q0 -98 -37 -183t-101.5 -146.5t-151.5 -97.5t-189 -36q-70 0 -137.5 10.5t-165.5 28.5v1110q0 41 -2 63.5t-10.5 35t-26 17.5t-45.5 9zM291 250q0 -39 13 -77 t40 -68.5t70 -50t100 -19.5q63 0 115.5 25.5t90.5 70.5t58.5 109.5t20.5 140.5q0 78 -21.5 143.5t-58.5 112.5t-88 74.5t-111 27.5q-94 0 -229 -96v-393z" />
<glyph unicode="c" horiz-adv-x="874" d="M94 371q0 96 37 180t101.5 147.5t149.5 99.5t183 36t164 -34t66 -83q0 -27 -17.5 -44.5t-42.5 -17.5q-37 0 -63.5 19.5t-51 43t-53 43t-71.5 19.5q-53 0 -101.5 -29.5t-84.5 -78.5t-57.5 -116t-21.5 -140q0 -76 21.5 -141.5t60.5 -113.5t92.5 -75t114.5 -27 q74 0 134.5 35t115.5 113l31 -19q-66 -104 -153 -158.5t-210 -54.5q-92 0 -157.5 39t-106.5 98.5t-60.5 128t-19.5 130.5z" />
<glyph unicode="d" horiz-adv-x="1024" d="M88 371q0 96 35 180t94 147.5t140 99.5t175 36q47 0 103.5 -11.5t97.5 -27.5v397q0 29 -15.5 40t-64.5 17l-67 8v35l284 84v-1202q0 -52 29 -66q15 -7 35 -8q17 0 37 6l49 15v-43l-262 -103h-25v146q-201 -145 -317 -146q-68 0 -128.5 31t-104.5 85t-69.5 126t-25.5 154z M225 440q0 -76 20.5 -144.5t57.5 -120.5t85 -82t104 -30q47 0 110.5 28t130.5 75v459q-55 82 -113.5 117.5t-130.5 35.5q-59 0 -108 -25.5t-84 -70.5t-53.5 -107.5t-18.5 -134.5z" />
<glyph unicode="e" horiz-adv-x="897" d="M98 395q0 82 27 161t78 140.5t123.5 99.5t167.5 38q104 0 160.5 -32t87 -76t48 -89t41.5 -70v-47h-598q-4 -23 -6 -44t-2 -42q0 -80 25.5 -145.5t68.5 -112.5t99.5 -72.5t118.5 -25.5q78 0 139 31.5t121 101.5l22 -25q-33 -41 -72.5 -78.5t-86 -67.5t-98.5 -47.5 t-107 -17.5q-76 0 -140.5 32t-112.5 89.5t-76 134t-28 164.5zM240 573h419q-16 100 -72.5 161t-129.5 61q-25 0 -55.5 -8.5t-60.5 -32t-56.5 -66.5t-44.5 -115z" />
<glyph unicode="f" horiz-adv-x="555" d="M33 721v35q82 18 151 55q0 129 33 228.5t125 191.5q76 76 147.5 110.5t143.5 34.5q43 0 81 -10t67.5 -25.5t46 -32t16.5 -28.5q0 -6 -6.5 -22.5t-15.5 -33t-18 -29.5t-16 -13q-10 0 -30.5 15t-49 34.5t-68.5 35t-91 15.5q-111 0 -169 -83t-58 -232v-156h206l15 -90h-221 v-561q0 -72 32.5 -96.5t118.5 -24.5h78v-39h-506v39q45 0 71.5 6t42 21.5t20.5 43t5 70.5v541h-151z" />
<glyph unicode="g" horiz-adv-x="960" d="M72 -283q0 45 21.5 74t53 54.5t70.5 53t74 70.5q-84 8 -139.5 52.5t-55.5 93.5q0 35 22.5 55t55.5 35.5t69 28t62 32.5q-94 37 -145 101.5t-51 152.5q0 66 27.5 123t76.5 99t114.5 67t141.5 25q143 0 229 -82q70 0 135.5 6t133.5 14v-129q-23 2 -84.5 8t-120.5 17 q10 -16 22.5 -49t12.5 -82q0 -57 -23.5 -110.5t-70 -94.5t-113 -66.5t-152.5 -25.5q-29 0 -47 3t-47 13q-12 -12 -33.5 -23.5t-41 -23.5t-35 -25.5t-15.5 -31.5q0 -39 69.5 -55.5t223.5 -18.5q86 0 146.5 -3t103.5 -11.5t71.5 -22.5t51.5 -37q37 -37 49 -73.5t12 -69.5 q0 -49 -33.5 -108.5t-103.5 -111t-175.5 -85t-246.5 -33.5q-160 0 -237.5 59.5t-77.5 134.5zM199 -215q0 -37 23.5 -73t64.5 -65.5t96 -48t119 -18.5q66 0 126 19.5t107 53.5t76 78t29 93q0 57 -41 87t-97 34q-20 2 -72 4t-110.5 3t-112 3t-75.5 6q-20 -25 -44 -44 t-44.5 -38.5t-32.5 -41t-12 -52.5zM246 561q0 -45 12 -95t38 -91t68 -68.5t99 -27.5q90 0 143 66.5t53 172.5q0 133 -60 205t-155 72q-29 0 -63.5 -9.5t-64 -36t-50 -71.5t-20.5 -117z" />
<glyph unicode="h" d="M51 0v39q86 4 112.5 38t26.5 120v981q0 35 -9 49t-42 18l-88 12v35l244 84h33v-671q102 59 181 94t157 35q119 0 173 -75t54 -231q0 -141 -3 -234t-7 -177q4 -41 33.5 -59.5t121.5 -18.5v-39h-442v39q82 0 115 33q14 14 22 39.5t13.5 75t7.5 125t2 190.5q0 82 -19.5 131 t-48.5 74.5t-61.5 34t-57.5 8.5q-51 0 -108.5 -25t-132.5 -72v-491q0 -72 26.5 -97.5t106.5 -25.5v-39h-410z" />
<glyph unicode="i" horiz-adv-x="532" d="M37 0v39q94 0 132 33.5t38 115.5v412q0 59 -11.5 75.5t-52.5 24.5l-96 19v33l266 92h31v-688q0 -53 33 -85t115 -32v-39h-455zM172 1227q0 33 25.5 55.5t62.5 22.5t63.5 -22.5t26.5 -55.5t-26.5 -55.5t-63.5 -22.5t-62.5 22.5t-25.5 55.5z" />
<glyph unicode="j" horiz-adv-x="512" d="M-215 -371q0 39 19.5 67t41.5 28q23 0 47.5 -19.5t52 -42t58.5 -42t66 -19.5q61 0 99 50t38 173v794q0 47 -13.5 61.5t-54.5 22.5l-92 17v33l268 92h29v-881q0 -104 -26.5 -186t-72.5 -138.5t-107.5 -86t-133.5 -29.5q-92 0 -155.5 30.5t-63.5 75.5zM168 1227 q0 33 25.5 55.5t62.5 22.5t63.5 -22.5t26.5 -55.5t-26.5 -55.5t-63.5 -22.5t-62.5 22.5t-25.5 55.5z" />
<glyph unicode="k" horiz-adv-x="1024" d="M45 0v39q82 0 112.5 36t30.5 101v989q0 43 -11 59.5t-48 20.5l-84 12v35l250 84h31v-889l295 211q31 22 31 40q0 6 -4 12q-14 22 -70 22h-35v39h405v-39q-55 -2 -96 -12t-77 -26.5t-69.5 -39t-72.5 -51.5l-189 -135l328 -334q39 -39 68.5 -64.5t56.5 -41t55.5 -22.5 t63.5 -7v-39h-441v39q92 0 92 36q0 21 -30 54l-311 324v-314q0 -53 23.5 -76.5t94.5 -23.5h21v-39h-420z" />
<glyph unicode="l" horiz-adv-x="491" d="M12 0v39q98 0 134 31.5t36 105.5v989q0 43 -10 60.5t-53 21.5l-92 10v35l262 84h30v-1214q0 -123 119 -123h35v-39h-461z" />
<glyph unicode="m" horiz-adv-x="1622" d="M43 0v39q90 0 117.5 40t27.5 118v401q0 59 -12 79.5t-47 24.5l-80 11v35l246 86h31v-164q111 78 207 121t157 43q76 0 127 -44.5t68 -119.5q104 66 195 115t167 49q111 0 158 -81t47 -229q0 -98 -1 -198.5t-5 -194.5q0 -33 22.5 -62.5t85.5 -29.5h66v-39h-461v39h19 q45 0 67.5 7t36.5 22q23 23 28 103.5t5 186.5v160q0 233 -154 234q-47 0 -111.5 -26t-160.5 -89v-471q0 -78 24.5 -102.5t102.5 -24.5v-39h-420v39q86 0 121 35t35 123v378q0 49 -13.5 82t-35 54.5t-49 31t-54.5 9.5q-43 0 -106.5 -25t-167.5 -94v-467q0 -80 28.5 -103.5 t114.5 -23.5v-39h-426z" />
<glyph unicode="n" d="M53 0v39q68 0 102.5 35t34.5 94v430q0 57 -10 74.5t-51 25.5l-70 15v32l236 86h33v-159q104 66 190 114t162 48q104 0 161.5 -77t57.5 -231q0 -102 -2 -166.5t-5 -107.5t-6 -71.5t-3 -59.5v-6q1 -37 25 -55q26 -20 89 -21h45v-39h-440v39q45 2 72.5 12t44.5 27 q29 29 36 142.5t7 318.5q0 61 -13.5 102t-37 66.5t-52 36t-59.5 10.5q-49 0 -120.5 -38t-151.5 -93v-445q0 -86 26.5 -112.5t110.5 -26.5v-39h-412z" />
<glyph unicode="o" d="M92 399q0 106 39 187.5t102.5 136.5t142.5 83t159 28q94 0 173.5 -33t139 -91.5t93.5 -136t34 -170.5q0 -90 -34 -168.5t-92 -136t-137 -90.5t-171 -33q-94 0 -177 33t-142.5 89.5t-94.5 134t-35 167.5zM246 469q0 -92 24.5 -174t67.5 -141.5t101.5 -94t123.5 -34.5 q45 0 91 22.5t83 64.5t60.5 103t23.5 137q0 88 -24.5 166t-67.5 137.5t-100.5 94t-122.5 34.5q-51 0 -98.5 -24.5t-83 -67.5t-57 -100t-21.5 -123z" />
<glyph unicode="p" horiz-adv-x="1024" d="M12 -438h21q78 0 107.5 31.5t29.5 119.5v903q0 29 -10 43.5t-47 24.5l-66 16v39l219 135h41v-196q96 72 176 110.5t142 38.5q59 0 114.5 -31.5t97.5 -84t66.5 -121t24.5 -144.5q0 -92 -35 -176t-94.5 -147.5t-138 -100t-166.5 -36.5q-41 0 -84 9t-103 32v-332 q0 -78 36 -105.5t101 -27.5h52v-39h-484v39zM307 160q55 -49 120 -80t122 -31q53 0 97 24.5t76 65.5t50.5 96.5t18.5 118.5q0 102 -27 173t-67 115t-87 64.5t-88 20.5q-47 0 -103.5 -26.5t-111.5 -73.5v-467z" />
<glyph unicode="q" horiz-adv-x="1024" d="M94 385q0 94 34 176t92.5 142.5t137 95.5t168.5 35q66 0 127.5 -17.5t130.5 -52.5q12 16 32 35.5t36 29.5h35q-6 -29 -9.5 -51t-3.5 -53v-1038q0 -66 36 -95.5t83 -29.5h23v-39h-496v39h80q80 0 108.5 34.5t28.5 122.5v408q-86 -74 -159.5 -108.5t-149.5 -34.5 q-72 0 -133.5 29.5t-105.5 84t-69.5 128t-25.5 159.5zM231 438q0 -78 21.5 -145.5t59.5 -116.5t90.5 -77.5t111.5 -28.5q51 0 112.5 27.5t110.5 76.5v365q0 111 -66.5 177t-164.5 66q-125 0 -200 -92t-75 -252z" />
<glyph unicode="r" horiz-adv-x="681" d="M53 0v39q78 2 107.5 37t29.5 117v473l-137 49v35l234 81h41v-217h4q39 63 64.5 103.5t46 64t40 31.5t43.5 8q18 0 29.5 -3t40.5 -15q16 -6 43 -13.5l63 -17.5l-49 -123q-23 4 -51.5 11.5t-56.5 21.5q-16 8 -34.5 14t-37.5 6q-29 0 -46 -15t-34 -38q-41 -57 -65 -102v-397 q0 -63 27.5 -87t105.5 -24h78v-39h-486z" />
<glyph unicode="s" horiz-adv-x="618" d="M66 207h32q18 -92 71.5 -142.5t123.5 -50.5q61 0 103 40t42 96q0 33 -12 58t-53 66q-55 55 -109.5 89t-98.5 67t-71.5 72t-27.5 102q0 102 72.5 166t189.5 64q82 0 164 -33l4 -187h-35q-10 78 -56.5 124t-107.5 46q-51 0 -88 -31.5t-37 -82.5q0 -45 28.5 -79t70.5 -64.5 t91.5 -60.5t91.5 -67t70.5 -82t28.5 -108q0 -49 -19.5 -92t-53.5 -75t-81 -49.5t-100 -17.5q-29 0 -51.5 4.5t-38.5 10.5q-16 4 -29.5 8t-25.5 4q-18 0 -35 -25h-31z" />
<glyph unicode="t" horiz-adv-x="598" d="M59 721v33q59 29 110.5 96.5t86.5 163.5h35v-203h293l-33 -90h-260v-477q0 -49 15.5 -82t37 -52.5t44 -28.5t38.5 -9q66 0 125 102l33 -31q-37 -80 -94.5 -124t-129.5 -44q-92 0 -149 67t-57 171v508h-95z" />
<glyph unicode="u" d="M51 743v31l264 57v-573q0 -47 15.5 -82t42 -57.5t59.5 -33.5t68 -11q53 0 116.5 29.5t126.5 82.5v441q0 59 -13 78.5t-62 29.5l-103 19v28l316 49v-690q-1 -43 19 -53q10 -5 29 -5t46 5l43 8v-37l-275 -84v164q-227 -164 -348 -164q-39 0 -77.5 13.5t-69.5 39t-50.5 65.5 t-19.5 91v455q0 37 -11 55.5t-44 28.5z" />
<glyph unicode="v" horiz-adv-x="980" d="M14 774v37h418v-37q-94 -4 -122 -24q-13 -9 -13 -29q0 -24 20 -64l218 -510l208 474q16 35 16 63q-1 23 -11 41q-24 41 -136 49v37h357v-37q-59 -10 -96 -46t-66 -103l-283 -643h-59l-297 680q-23 53 -44.5 75.5t-45.5 26.5z" />
<glyph unicode="w" horiz-adv-x="1515" d="M16 774v37h398v-37q-92 -4 -106 -34q-4 -9 -3 -22q0 -30 23 -81l221 -494l201 475q-35 78 -67 111t-85 39l-49 6v37h424v-37q-77 -2 -99 -30q-9 -11 -9 -30q0 -29 20 -75l200 -487l197 479q20 46 20 76q0 23 -12 37q-28 30 -127 30v37h344v-37q-59 -6 -98 -39t-70 -108 l-264 -645h-55l-244 577l-246 -577h-57l-305 688q-23 47 -51.5 71.5t-100.5 32.5z" />
<glyph unicode="x" horiz-adv-x="1003" d="M16 0v41q37 0 65 5t50.5 17.5t45 33t48.5 50.5l219 246l-198 260q-37 49 -84 83t-131 38v37h413v-37q-72 0 -84 -20q-4 -6 -4 -14q0 -19 21 -50l153 -203l134 150q38 42 38 74q0 13 -6 24q-22 39 -100 39v37h395v-37l-59 -6q-68 -8 -112 -40t-89 -81l-174 -192l246 -308 q41 -49 79 -77.5t109 -28.5v-41h-409v41q76 1 94 19q6 6 6 14q0 19 -27 53l-182 233l-180 -202q-27 -31 -27 -55q0 -16 12 -29q30 -33 119 -33v-41h-381z" />
<glyph unicode="y" horiz-adv-x="960" d="M-10 774v37h411v-37q-94 -2 -111 -30q-7 -11 -7 -26q0 -27 20 -69l232 -499l174 434q23 59 27.5 95t-8.5 56.5t-43 28.5t-75 10v37h340v-37q-63 -8 -102 -50t-68 -114l-348 -868q-47 -115 -87 -167t-93 -52q-37 0 -60.5 20.5t-23.5 50.5q0 31 19.5 46.5t46 23.5t56 17.5 t48.5 27.5q16 16 36.5 51t33.5 66l61 154l-317 673q-29 63 -63 91t-99 30z" />
<glyph unicode="z" horiz-adv-x="831" d="M63 0v39l519 698h-281h-65q-39 0 -56.5 -44t-52.5 -152h-39l64 325h34q0 -35 18.5 -45t78.5 -10h487v-37l-516 -700h375q53 0 81.5 36.5t59.5 112.5h37l-84 -223h-660z" />
<glyph unicode="{" horiz-adv-x="980" d="M211 432v35q100 18 163.5 75.5t63.5 129.5q0 35 -7 71.5t-17 75.5q-10 41 -16.5 83t-6.5 89q0 68 27.5 133.5t78 118.5t120 89t151.5 44v-37q-55 -6 -99 -28.5t-73 -56t-44 -73.5t-15 -79q0 -47 5 -86t13 -76t14 -75t6 -85t-19 -96t-55 -94t-89.5 -81t-120.5 -56v-4 q68 -20 121 -57.5t89 -81.5t55 -94t19 -97t-6 -84t-14 -74t-13 -77t-5 -87q0 -39 15 -79t44 -73.5t73 -56t99 -28.5v-37q-82 8 -151.5 44t-120 89t-78 118.5t-27.5 133.5q0 47 6 90t17 82q10 41 17 77t7 70q0 72 -63.5 129.5t-163.5 75.5z" />
<glyph unicode="|" horiz-adv-x="1044" d="M479 -477v1782h88v-1782h-88z" />
<glyph unicode="}" horiz-adv-x="980" d="M213 -440q55 6 99 28.5t73 56t44 73.5t15 79q0 47 -6 87t-14 77t-13 74t-5 84t19 97t55 94t89.5 81t120.5 58v4q-68 20 -121 56t-89 81t-55 94t-19 96t5 85t13 75t14 76t6 86q0 39 -15 79t-44 73.5t-73 56t-99 28.5v37q84 -8 152.5 -44t119 -89t78 -118.5t27.5 -133.5 q0 -47 -7.5 -89t-17.5 -83q-10 -39 -16 -75.5t-6 -71.5q0 -72 63.5 -129.5t163.5 -75.5v-35q-100 -18 -163.5 -75.5t-63.5 -129.5q0 -35 6 -70.5t16 -76.5q10 -39 17.5 -82t7.5 -90q0 -68 -27.5 -133.5t-78 -118.5t-119 -89t-152.5 -44v37z" />
<glyph unicode="~" horiz-adv-x="1110" d="M14 487q4 156 76 231t189 75q61 0 135.5 -28t160.5 -63q84 -35 162 -64.5t133 -29.5q72 0 116 49.5t52 135.5h58q-6 -152 -76 -229t-189 -77q-70 0 -149.5 28t-157.5 63q-80 35 -152.5 62.5t-127.5 27.5q-72 0 -114 -44t-58 -137h-58z" />
<glyph unicode="&#xa1;" horiz-adv-x="532" d="M158 782q0 47 30.5 72t73.5 25q45 0 75 -27t30 -70t-30 -69.5t-75 -26.5q-43 0 -73.5 25.5t-30.5 70.5zM166 -428l76 917h41l75 -921q2 -29 -7 -37t-44 -8h-92q-35 0 -44 10t-5 39z" />
<glyph unicode="&#xa2;" horiz-adv-x="874" d="M94 371q0 96 39 183t108.5 152.5t166 100.5t210.5 24l107 261h66l-111 -275q115 -35 115 -100q0 -27 -17.5 -44.5t-42.5 -17.5q-49 0 -102 50l-244 -613q41 -18 70.5 -25.5t62.5 -7.5q74 0 132.5 35t117.5 113l29 -19q-72 -117 -185.5 -176t-267.5 -24l-135 -332h-66 l144 352q-98 55 -147.5 155.5t-49.5 207.5zM231 416q0 -164 107 -283l248 612q-31 20 -49.5 27.5t-40.5 7.5q-53 0 -101.5 -29.5t-84.5 -78.5t-57.5 -116t-21.5 -140z" />
<glyph unicode="&#xa3;" horiz-adv-x="1556" d="M29 -399q0 25 20.5 56.5t54 62t76.5 58t90 46.5q45 78 76 153.5t60 153.5h-302l11 49h311l160 414q72 184 150.5 334.5t199.5 271.5q82 82 161 117t169 35q49 0 93 -11.5t76.5 -32t52 -47t19.5 -55.5t-18.5 -46t-46.5 -17q-33 0 -57.5 21.5t-50 48t-59.5 48t-87 21.5 q-29 0 -70 -17.5t-80 -56.5q-49 -49 -105 -167.5t-117.5 -267t-127 -306.5t-133.5 -287h352l-10 -49h-365q-41 -86 -80.5 -148.5t-93.5 -127.5l4 -5q102 55 224 56q100 0 175 -40t140.5 -88t129 -88t136.5 -40q78 0 131.5 44t53.5 107q0 25 -9.5 44.5t-19.5 38t-19.5 34.5 t-9.5 33q0 33 21.5 54.5t50.5 21.5q41 0 65.5 -38t24.5 -98q0 -66 -31.5 -128t-85 -109t-122 -76t-142.5 -29q-104 0 -178 45.5t-138.5 99.5t-129 99t-146.5 45q-39 0 -78.5 -12t-87.5 -35q-53 -106 -117.5 -171.5t-115.5 -65.5q-23 0 -39 14t-16 33z" />
<glyph unicode="&#xa4;" horiz-adv-x="1366" d="M215 250l125 123q-55 78 -77.5 140t-22.5 142t22.5 143.5t77.5 139.5l-125 123l61 63l125 -123q78 55 140.5 77t142.5 22t142.5 -21.5t140.5 -79.5l125 125l61 -63l-125 -123q55 -76 77.5 -138.5t22.5 -144.5q0 -78 -22.5 -140t-77.5 -140l125 -125l-61 -62l-125 125 q-78 -57 -140.5 -79.5t-142.5 -22.5t-143.5 23.5t-139.5 76.5l-125 -123zM328 655q0 -74 27.5 -138t76.5 -112.5t113.5 -77t138.5 -28.5t138.5 28.5t112.5 77t76.5 113t28.5 137.5q0 74 -28.5 138.5t-76.5 113.5t-112.5 77t-138.5 28t-138.5 -28t-113.5 -77t-76.5 -113.5 t-27.5 -138.5z" />
<glyph unicode="&#xa5;" horiz-adv-x="1024" d="M-217 1235v39h545v-39q-119 0 -136.5 -30.5t27.5 -102.5l109 -166h420l88 151q47 84 20 116t-125 32v39h463v-39q-104 -8 -158.5 -48t-97.5 -114l-80 -137h227v-68h-268l-190 -321h458v-68h-487v-289q0 -82 35 -116.5t129 -34.5h26v-39h-563v39h39q96 0 130 36t34 111 v293h-549v68h504l-207 321h-297v68h254l-70 108q-37 59 -67.5 96.5t-61 58t-66.5 27.5t-85 9zM371 868l176 -272l160 272h-336z" />
<glyph unicode="&#xa6;" horiz-adv-x="1044" d="M479 279h88v-756h-88v756zM479 549v756h88v-756h-88z" />
<glyph unicode="&#xa7;" horiz-adv-x="960" d="M106 831q0 104 36 198.5t98.5 166.5t146.5 114t180 42q49 0 96.5 -11.5t84 -31t59 -43t22.5 -47.5q0 -29 -21.5 -47.5t-51.5 -18.5q-33 0 -57.5 21.5t-50 47t-59.5 47t-83 21.5q-76 0 -131.5 -48t-55.5 -118q0 -63 69 -166.5t190 -271.5q61 -86 112 -165t87 -155.5 t55.5 -157.5t19.5 -171q0 -117 -45 -208t-114.5 -153.5t-151.5 -95.5t-156 -33q-49 0 -94 11.5t-80 29t-56.5 41t-21.5 47.5q0 27 19.5 46.5t46.5 19.5q35 0 57.5 -21.5t48 -46t60 -46t90.5 -21.5q37 0 70.5 13t59 34.5t41 51.5t15.5 61q0 51 -40 122.5t-99.5 155.5 t-128 180.5t-128 196.5t-99.5 204.5t-40 204.5zM182 852q0 -70 18.5 -135.5t46 -125t57 -109.5t54.5 -89q47 -76 103.5 -153.5t106.5 -154.5t88 -151.5t51 -144.5q68 100 67 227q0 88 -16.5 159t-46 136.5t-72.5 132t-98 146.5q-49 70 -98.5 142.5t-91.5 141t-68.5 129 t-28.5 105.5h-4q-31 -47 -49.5 -116.5t-18.5 -139.5z" />
<glyph unicode="&#xa8;" horiz-adv-x="681" d="M53 1145q0 37 26.5 63.5t63.5 26.5t63.5 -26.5t26.5 -63.5t-26.5 -63.5t-63.5 -26.5t-63.5 26.5t-26.5 63.5zM451 1145q0 37 26.5 63.5t63.5 26.5t63.5 -26.5t26.5 -63.5t-26.5 -63.5t-63.5 -26.5t-63.5 26.5t-26.5 63.5z" />
<glyph unicode="&#xa9;" horiz-adv-x="1556" d="M70 678q0 147 55 276t151.5 225.5t225.5 151.5t276 55t276.5 -55t225.5 -151.5t151.5 -225.5t55.5 -276t-55.5 -276.5t-151.5 -225.5t-225 -151.5t-277 -55.5q-147 0 -276 55.5t-225.5 151.5t-151.5 225t-55 277zM131 678q0 -135 51 -253t138.5 -205t205 -138t252.5 -51 t253 51t205 138t138 205t51 253t-51 253t-138 205t-205 138t-253 51t-252.5 -51t-205 -138t-138.5 -205t-51 -253zM317 672q0 98 38 183t104.5 146.5t158 97.5t197.5 36q47 0 82 -7.5t61.5 -15.5t46 -15t35.5 -7q20 0 30.5 12t16.5 33h39l21 -281h-39q-72 238 -303 238 q-147 0 -234.5 -104.5t-87.5 -285.5q0 -113 27 -191.5t72 -127.5t105.5 -71.5t127.5 -22.5q195 0 311 162l39 -19q-139 -203 -385 -203q-98 0 -183 34t-146.5 93.5t-97.5 140.5t-36 175z" />
<glyph unicode="&#xaa;" horiz-adv-x="532" d="M43 893q0 43 27.5 65.5t68.5 38t88 27.5t86 35v112q0 41 -28.5 63.5t-55.5 22.5q-12 0 -26.5 -6t-25.5 -16t-14 -24.5t7 -30.5l-111 -50q-16 20 -0.5 50t47 58t72.5 47.5t78 19.5q31 0 61.5 -9.5t54 -26t39 -41t15.5 -52.5v-263q0 -27 3 -41t20 -14q16 0 35.5 10.5 t33.5 24.5l12 -35q-86 -72 -143 -72t-70 64q-51 -39 -78.5 -51.5t-66.5 -12.5q-57 0 -93 30t-36 77zM152 907q0 -29 17 -47t46 -18q12 0 44 17.5t54 29.5v129q-37 -16 -66.5 -26.5t-51 -20.5t-32.5 -24.5t-11 -39.5z" />
<glyph unicode="&#xab;" horiz-adv-x="724" d="M70 449l301 376h37l-195 -376l195 -377h-37zM358 449l240 346h37l-133 -346l133 -347h-37z" />
<glyph unicode="&#xac;" horiz-adv-x="1366" d="M145 856v90h1076v-577h-93v487h-983z" />
<glyph unicode="&#xad;" horiz-adv-x="811" d="M72 350v103h667v-103h-667z" />
<glyph unicode="&#xae;" horiz-adv-x="1556" d="M70 678q0 147 55 276t151.5 225.5t225.5 151.5t276 55t276.5 -55t225.5 -151.5t151.5 -225.5t55.5 -276t-55.5 -276.5t-151.5 -225.5t-225 -151.5t-277 -55.5q-147 0 -276 55.5t-225.5 151.5t-151.5 225t-55 277zM131 678q0 -135 51 -253t138.5 -205t205 -138t252.5 -51 t253 51t205 138t138 205t51 253t-51 253t-138 205t-205 138t-253 51t-252.5 -51t-205 -138t-138.5 -205t-51 -253zM373 248v33q57 0 80.5 22.5t23.5 65.5v622q0 41 -17.5 63.5t-74.5 22.5v37h385q135 0 217 -61.5t82 -163.5q0 -166 -223 -221l209 -299q35 -49 59.5 -66.5 t61.5 -21.5v-33h-185l-295 405h-73v-295q0 -41 24.5 -59t91.5 -18v-33h-366zM623 696h39q47 0 91 10.5t78.5 32t55 56t20.5 84.5q0 82 -57 136t-145 54q-23 0 -39.5 -3t-42.5 -11v-359z" />
<glyph unicode="&#xaf;" horiz-adv-x="681" d="M59 1087v119h564v-119h-564z" />
<glyph unicode="&#xb0;" horiz-adv-x="811" d="M98 1001q0 63 24.5 120t65.5 98t98 65.5t120 24.5t119.5 -24.5t97.5 -65.5t65.5 -97.5t24.5 -120.5q0 -63 -24.5 -119.5t-65.5 -97.5t-97.5 -65.5t-119.5 -24.5t-120 24.5t-98 65.5t-65.5 97.5t-24.5 119.5zM182 1001q0 -45 17.5 -86t48.5 -71.5t71.5 -48t86.5 -17.5 q47 0 86.5 17.5t70.5 48t48.5 71.5t17.5 86q0 47 -17.5 87t-48.5 71t-70.5 48.5t-86.5 17.5q-45 0 -86 -17.5t-72 -48.5t-48.5 -70.5t-17.5 -87.5z" />
<glyph unicode="&#xb1;" horiz-adv-x="1366" d="M145 -37v90h1076v-90h-1076zM145 772v90h492v492h90v-492h494v-90h-494v-493h-90v493h-492z" />
<glyph unicode="&#xb2;" horiz-adv-x="618" d="M47 627v24q76 76 145.5 135.5t123 110.5t85 99t31.5 104q0 57 -42 95t-105 38t-111.5 -38t-69.5 -103h-43q10 96 81 154.5t175 58.5q100 0 168 -54.5t68 -136.5q0 -68 -32 -109.5t-85 -81.5t-124.5 -90.5t-149.5 -132.5h280q49 0 66.5 15.5t26.5 70.5h43l-25 -159h-506z " />
<glyph unicode="&#xb3;" horiz-adv-x="618" d="M66 692q0 16 14 29.5t35 13.5q23 0 44 -12t42.5 -27.5t45 -29t54.5 -13.5q66 0 114 54.5t48 128.5q0 59 -35 99t-86 40q-23 0 -41 -7t-45 -28l-25 29q78 51 124 93t46 87q0 39 -30.5 64.5t-75.5 25.5t-86 -27.5t-70 -78.5l-41 14q35 74 97.5 116t140.5 42q72 0 121 -35 t49 -88q0 -74 -111 -140v-4q84 -6 133.5 -54t49.5 -122q0 -49 -26 -95t-70 -80t-102 -54.5t-122 -20.5q-78 0 -135 23.5t-57 56.5z" />
<glyph unicode="&#xb4;" horiz-adv-x="681" d="M143 999l189 261q31 41 65.5 65.5t65.5 24.5q29 0 46 -16.5t17 -43.5q0 -29 -32.5 -62.5t-106.5 -82.5l-217 -146h-27z" />
<glyph unicode="&#xb5;" horiz-adv-x="1024" d="M55 -334q0 39 9.5 79t21.5 88t21.5 106.5t9.5 134.5v737h137v-442q0 -156 35 -220.5t131 -64.5q78 0 139.5 33t126.5 110v584h137v-616q0 -55 20.5 -85t49.5 -30q61 0 80 123h43q-4 -104 -51 -168t-125 -64q-61 0 -106.5 49.5t-47.5 141.5q-90 -90 -171 -140.5 t-169 -50.5q-53 0 -87 18.5t-69 67.5q-6 -57 0.5 -108t16.5 -99.5t19.5 -94.5t9.5 -89q0 -45 -27 -76.5t-66 -31.5t-63.5 29.5t-24.5 78.5z" />
<glyph unicode="&#xb6;" horiz-adv-x="917" d="M-14 897q0 178 118.5 277.5t331.5 99.5h494v-55h-131v-1696h-74v1696h-186v-1696h-74v995q-125 0 -216 27.5t-149.5 78t-86 120t-27.5 153.5z" />
<glyph unicode="&#xb7;" horiz-adv-x="532" d="M162 662q0 43 29.5 69.5t74.5 26.5q43 0 74 -25.5t31 -70.5q0 -47 -31 -72t-74 -25q-45 0 -74.5 26.5t-29.5 70.5z" />
<glyph unicode="&#xb8;" horiz-adv-x="681" d="M209 -254l160 264h30l-65 -110q33 6 61.5 -5.5t50 -33t34 -52t12.5 -61.5q0 -74 -51.5 -125t-123.5 -51q-23 0 -44 4t-44 12l15 29q27 -8 53 -8q45 0 77 30.5t32 73.5q0 35 -17.5 54.5t-48.5 19.5q-45 0 -131 -41z" />
<glyph unicode="&#xb9;" horiz-adv-x="618" d="M109 1145q31 16 61.5 38.5t58 44t50 42t34.5 35.5h62v-611q0 -20 8 -27.5t31 -7.5h73v-32h-327v32h84q12 0 19 6.5t7 26.5v504q-47 -31 -77.5 -47t-65.5 -31z" />
<glyph unicode="&#xba;" horiz-adv-x="704" d="M53 1047q0 41 19.5 87t56.5 83.5t92 62.5t127 25q86 0 143.5 -30t91 -72t47 -84.5t13.5 -71.5q0 -45 -20.5 -92.5t-59.5 -84t-93 -60.5t-122 -24q-86 0 -143.5 31t-91 73t-47 86t-13.5 71zM178 1085q0 -53 14.5 -99t41 -81t61.5 -55.5t74 -20.5q66 0 109.5 53.5 t43.5 133.5q0 49 -15 94t-41 79t-60.5 53.5t-73.5 19.5q-66 0 -110 -50.5t-44 -126.5z" />
<glyph unicode="&#xbb;" horiz-adv-x="724" d="M90 102l133 347l-133 346h37l240 -346l-240 -347h-37zM317 72l195 377l-195 376h37l301 -376l-301 -377h-37z" />
<glyph unicode="&#xbc;" horiz-adv-x="1472" d="M109 1145q31 16 61.5 38.5t58 44t50 42t34.5 35.5h62v-611q0 -20 8 -27.5t31 -7.5h73v-32h-327v32h84q12 0 19 6.5t7 26.5v504q-47 -31 -77.5 -47t-65.5 -31zM156 -55l995 1394h84l-995 -1394h-84zM748 190v31l360 457h53v-424h121v-64h-121v-204h-104v204h-309zM834 254 h223v287h-4z" />
<glyph unicode="&#xbd;" horiz-adv-x="1472" d="M109 1145q31 16 61.5 38.5t58 44t50 42t34.5 35.5h62v-611q0 -20 8 -27.5t31 -7.5h73v-32h-327v32h84q12 0 19 6.5t7 26.5v504q-47 -31 -77.5 -47t-65.5 -31zM156 -55l995 1394h84l-995 -1394h-84zM827 0v25q76 76 145.5 135t123 110.5t85 99.5t31.5 103q0 57 -42 95 t-105 38t-111.5 -38t-68.5 -103h-43q10 96 80.5 154.5t175.5 58.5q100 0 167.5 -54.5t67.5 -136.5q0 -68 -31.5 -109.5t-85 -81.5t-125 -90t-149.5 -132h281q49 0 66.5 15t25.5 71h43l-25 -160h-506z" />
<glyph unicode="&#xbe;" horiz-adv-x="1472" d="M55 692q0 16 14.5 29.5t34.5 13.5q23 0 44.5 -12t43 -27.5t45 -29t54.5 -13.5q66 0 114 54.5t48 128.5q0 59 -35 99t-86 40q-23 0 -41.5 -7t-44.5 -28l-25 29q78 51 124 93t46 87q0 39 -30.5 64.5t-75.5 25.5t-86 -27.5t-70 -78.5l-41 14q35 74 97.5 116t140.5 42 q72 0 121 -35t49 -88q0 -74 -111 -140v-4q84 -6 133 -54t49 -122q0 -49 -25.5 -95t-69.5 -80t-102.5 -54.5t-121.5 -20.5q-78 0 -135.5 23.5t-57.5 56.5zM190 -55l996 1394h84l-996 -1394h-84zM782 190v31l361 457h53v-424h121v-64h-121v-204h-104v204h-310zM868 254h224 v287h-5z" />
<glyph unicode="&#xbf;" horiz-adv-x="724" d="M88 -115q0 96 27.5 156.5t68.5 98.5t88 58.5t88 37t69 37t28 55.5q0 39 -21.5 75.5t-56.5 71.5h45q41 -45 70.5 -101.5t29.5 -109.5q0 -59 -28.5 -94t-71.5 -56.5t-93 -39t-93 -42t-72 -64.5t-29 -107q0 -92 58.5 -137.5t150.5 -45.5q49 0 89 7.5t69 7.5q43 0 80 -15.5 t37 -58.5q0 -41 -40.5 -68.5t-138.5 -27.5q-74 0 -138 25.5t-112.5 72.5t-76 113.5t-27.5 150.5zM303 748q0 47 31 71.5t74 24.5q45 0 74.5 -26.5t29.5 -69.5t-29.5 -70t-74.5 -27q-43 0 -74 25.5t-31 71.5z" />
<glyph unicode="&#xc0;" horiz-adv-x="1386" d="M8 0v39q49 0 81 7t55.5 28.5t42 60.5t42.5 107l373 1018l-18 45h178l428 -1137q31 -82 70.5 -105.5t115.5 -23.5v-39h-563v39h53q88 0 124 13.5t36 56.5q0 25 -8 46t-14 38l-138 372h-424l-118 -321q-10 -29 -25.5 -68t-15.5 -61q0 -41 39.5 -58.5t126.5 -17.5h32v-39 h-473zM477 655h354l-180 478zM495 1726q0 27 17.5 43.5t46.5 16.5q31 0 65.5 -25t65.5 -65l188 -261h-26l-217 146q-74 49 -107 83t-33 62z" />
<glyph unicode="&#xc1;" horiz-adv-x="1386" d="M8 0v39q49 0 81 7t55.5 28.5t42 60.5t42.5 107l373 1018l-18 45h178l428 -1137q31 -82 70.5 -105.5t115.5 -23.5v-39h-563v39h53q88 0 124 13.5t36 56.5q0 25 -8 46t-14 38l-138 372h-424l-118 -321q-10 -29 -25.5 -68t-15.5 -61q0 -41 39.5 -58.5t126.5 -17.5h32v-39 h-473zM477 655h354l-180 478zM495 1435l189 261q31 41 65.5 65.5t65.5 24.5q29 0 46 -16.5t17 -43.5q0 -29 -32.5 -62.5t-106.5 -82.5l-217 -146h-27z" />
<glyph unicode="&#xc2;" horiz-adv-x="1386" d="M8 0v39q49 0 81 7t55.5 28.5t42 60.5t42.5 107l373 1018l-18 45h178l428 -1137q31 -82 70.5 -105.5t115.5 -23.5v-39h-563v39h53q88 0 124 13.5t36 56.5q0 25 -8 46t-14 38l-138 372h-424l-118 -321q-10 -29 -25.5 -68t-15.5 -61q0 -41 39.5 -58.5t126.5 -17.5h32v-39 h-473zM446 1431v35l221 369h58l217 -369v-35l-254 256zM477 655h354l-180 478z" />
<glyph unicode="&#xc3;" horiz-adv-x="1386" d="M8 0v39q49 0 81 7t55.5 28.5t42 60.5t42.5 107l373 1018l-18 45h178l428 -1137q31 -82 70.5 -105.5t115.5 -23.5v-39h-563v39h53q88 0 124 13.5t36 56.5q0 25 -8 46t-14 38l-138 372h-424l-118 -321q-10 -29 -25.5 -68t-15.5 -61q0 -41 39.5 -58.5t126.5 -17.5h32v-39 h-473zM418 1476q0 115 44 172.5t121 57.5q41 0 77 -19.5t69 -42.5q35 -23 64.5 -43t58.5 -20q86 0 94 125h22q6 -51 -6 -93t-34.5 -72t-53 -46.5t-63.5 -16.5q-41 0 -76 20.5t-70 43.5q-33 23 -63.5 42t-61.5 19q-84 0 -100 -127h-22zM477 655h354l-180 478z" />
<glyph unicode="&#xc4;" horiz-adv-x="1386" d="M8 0v39q49 0 81 7t55.5 28.5t42 60.5t42.5 107l373 1018l-18 45h178l428 -1137q31 -82 70.5 -105.5t115.5 -23.5v-39h-563v39h53q88 0 124 13.5t36 56.5q0 25 -8 46t-14 38l-138 372h-424l-118 -321q-10 -29 -25.5 -68t-15.5 -61q0 -41 39.5 -58.5t126.5 -17.5h32v-39 h-473zM405 1581q0 37 26.5 63.5t63.5 26.5t63.5 -26.5t26.5 -63.5t-26.5 -63.5t-63.5 -26.5t-63.5 26.5t-26.5 63.5zM477 655h354l-180 478zM803 1581q0 37 26.5 63.5t63.5 26.5t63.5 -26.5t26.5 -63.5t-26.5 -63.5t-63.5 -26.5t-63.5 26.5t-26.5 63.5z" />
<glyph unicode="&#xc5;" horiz-adv-x="1386" d="M8 0v39q49 0 81 7t55.5 28.5t42 60.5t42.5 107l373 1018l-18 45h178l428 -1137q31 -82 70.5 -105.5t115.5 -23.5v-39h-563v39h53q88 0 124 13.5t36 56.5q0 25 -8 46t-14 38l-138 372h-424l-118 -321q-10 -29 -25.5 -68t-15.5 -61q0 -41 39.5 -58.5t126.5 -17.5h32v-39 h-473zM477 655h354l-180 478zM508 1569q0 78 54 132t132 54t132 -54.5t54 -131.5q0 -78 -54 -132.5t-132 -54.5t-132 54.5t-54 132.5zM557 1569q0 -57 40 -97.5t97 -40.5t97 40t40 98q0 57 -40 97t-97 40t-97 -40t-40 -97z" />
<glyph unicode="&#xc6;" horiz-adv-x="1792" d="M-106 0v39q72 0 120.5 39t108.5 135l539 891q78 131 -56 131h-45v39h1045l16 -285h-37q-10 72 -26.5 113t-36 63.5t-42 28.5t-46.5 6h-408v-504h342q55 0 83 32t36 122h39v-389h-39q-6 55 -16.5 87t-28 48t-41 21.5t-53.5 5.5h-322v-437q0 -72 26.5 -92t84.5 -20h290 q53 0 90 11t64 38t46.5 72t37.5 110h37l-33 -305h-1063v39h58q61 0 99 9t58.5 28.5t27.5 52.5t7 78v299h-450l-203 -330q-18 -31 -24.5 -56.5t6 -43t48 -27.5t99.5 -10v-39h-438zM449 580h407v643h-18z" />
<glyph unicode="&#xc7;" horiz-adv-x="1492" d="M106 621q0 150 54.5 274.5t153 215.5t233.5 142.5t295 51.5q96 0 166.5 -12.5t122 -28t85 -28.5t58.5 -13q29 0 37 12h30l19 -297h-39q-25 72 -71 130t-107.5 100t-135 64.5t-153.5 22.5q-123 0 -225.5 -49t-175 -131t-113.5 -188.5t-41 -222.5q0 -131 46 -248t125 -205 t183.5 -139.5t223.5 -51.5q61 0 129.5 16.5t135 53.5t128 94.5t106.5 137.5h39q-20 -70 -57 -155t-74 -144q-49 6 -93 -1.5t-98.5 -19.5t-127 -23.5t-181.5 -11.5l-41 -67q33 6 62 -5.5t50.5 -33t33.5 -52t12 -61.5q0 -74 -51 -125t-123 -51q-23 0 -44 4t-44 12l14 29 q27 -8 54 -8q45 0 76.5 30.5t31.5 73.5q0 35 -17.5 54.5t-47.5 19.5q-45 0 -132 -41l138 225q-143 8 -263 60.5t-206 138.5t-133.5 200.5t-47.5 250.5z" />
<glyph unicode="&#xc8;" horiz-adv-x="1216" d="M6 0v39h57q61 0 99.5 9t59 28.5t27.5 52.5t7 78v864q0 86 -30.5 125t-133.5 39h-45v39h983l17 -285h-37q-10 66 -24.5 107t-34 64.5t-42 31.5t-51.5 8h-432v-504h367q55 0 82.5 32t35.5 122h39v-389h-39q-6 55 -16 87t-27.5 48t-41 21.5t-54.5 5.5h-346v-437 q0 -72 26.5 -92t84.5 -20h315q53 0 90 11t63.5 38t46 72t38.5 110h36l-32 -305h-1088zM411 1726q0 27 17.5 43.5t46.5 16.5q31 0 65.5 -25t65.5 -65l188 -261h-26l-217 146q-74 49 -107 83t-33 62z" />
<glyph unicode="&#xc9;" horiz-adv-x="1216" d="M6 0v39h57q61 0 99.5 9t59 28.5t27.5 52.5t7 78v864q0 86 -30.5 125t-133.5 39h-45v39h983l17 -285h-37q-10 66 -24.5 107t-34 64.5t-42 31.5t-51.5 8h-432v-504h367q55 0 82.5 32t35.5 122h39v-389h-39q-6 55 -16 87t-27.5 48t-41 21.5t-54.5 5.5h-346v-437 q0 -72 26.5 -92t84.5 -20h315q53 0 90 11t63.5 38t46 72t38.5 110h36l-32 -305h-1088zM411 1435l189 261q31 41 65.5 65.5t65.5 24.5q29 0 46 -16.5t17 -43.5q0 -29 -32.5 -62.5t-106.5 -82.5l-217 -146h-27z" />
<glyph unicode="&#xca;" horiz-adv-x="1216" d="M6 0v39h57q61 0 99.5 9t59 28.5t27.5 52.5t7 78v864q0 86 -30.5 125t-133.5 39h-45v39h983l17 -285h-37q-10 66 -24.5 107t-34 64.5t-42 31.5t-51.5 8h-432v-504h367q55 0 82.5 32t35.5 122h39v-389h-39q-6 55 -16 87t-27.5 48t-41 21.5t-54.5 5.5h-346v-437 q0 -72 26.5 -92t84.5 -20h315q53 0 90 11t63.5 38t46 72t38.5 110h36l-32 -305h-1088zM362 1431v35l221 369h58l217 -369v-35l-254 256z" />
<glyph unicode="&#xcb;" horiz-adv-x="1216" d="M6 0v39h57q61 0 99.5 9t59 28.5t27.5 52.5t7 78v864q0 86 -30.5 125t-133.5 39h-45v39h983l17 -285h-37q-10 66 -24.5 107t-34 64.5t-42 31.5t-51.5 8h-432v-504h367q55 0 82.5 32t35.5 122h39v-389h-39q-6 55 -16 87t-27.5 48t-41 21.5t-54.5 5.5h-346v-437 q0 -72 26.5 -92t84.5 -20h315q53 0 90 11t63.5 38t46 72t38.5 110h36l-32 -305h-1088zM321 1581q0 37 26.5 63.5t63.5 26.5t63.5 -26.5t26.5 -63.5t-26.5 -63.5t-63.5 -26.5t-63.5 26.5t-26.5 63.5zM719 1581q0 37 26.5 63.5t63.5 26.5t63.5 -26.5t26.5 -63.5t-26.5 -63.5 t-63.5 -26.5t-63.5 26.5t-26.5 63.5z" />
<glyph unicode="&#xcc;" horiz-adv-x="681" d="M92 0v39q47 2 78 10t47 28.5t22.5 53.5t6.5 84v872q0 84 -34 114t-120 34v39h498v-39q-96 0 -135 -32t-39 -134v-868q0 -90 33.5 -126t140.5 -36v-39h-498zM143 1726q0 27 17.5 43.5t46.5 16.5q31 0 65.5 -25t65.5 -65l188 -261h-26l-217 146q-74 49 -107 83t-33 62z" />
<glyph unicode="&#xcd;" horiz-adv-x="681" d="M92 0v39q47 2 78 10t47 28.5t22.5 53.5t6.5 84v872q0 84 -34 114t-120 34v39h498v-39q-96 0 -135 -32t-39 -134v-868q0 -90 33.5 -126t140.5 -36v-39h-498zM143 1435l189 261q31 41 65.5 65.5t65.5 24.5q29 0 46 -16.5t17 -43.5q0 -29 -32.5 -62.5t-106.5 -82.5 l-217 -146h-27z" />
<glyph unicode="&#xce;" horiz-adv-x="681" d="M92 0v39q47 2 78 10t47 28.5t22.5 53.5t6.5 84v872q0 84 -34 114t-120 34v39h498v-39q-96 0 -135 -32t-39 -134v-868q0 -90 33.5 -126t140.5 -36v-39h-498zM94 1431v35l221 369h58l217 -369v-35l-254 256z" />
<glyph unicode="&#xcf;" horiz-adv-x="681" d="M53 1581q0 37 26.5 63.5t63.5 26.5t63.5 -26.5t26.5 -63.5t-26.5 -63.5t-63.5 -26.5t-63.5 26.5t-26.5 63.5zM92 0v39q47 2 78 10t47 28.5t22.5 53.5t6.5 84v872q0 84 -34 114t-120 34v39h498v-39q-96 0 -135 -32t-39 -134v-868q0 -90 33.5 -126t140.5 -36v-39h-498z M451 1581q0 37 26.5 63.5t63.5 26.5t63.5 -26.5t26.5 -63.5t-26.5 -63.5t-63.5 -26.5t-63.5 26.5t-26.5 63.5z" />
<glyph unicode="&#xd0;" horiz-adv-x="1556" d="M31 0v39h35q84 0 122.5 29.5t38.5 119.5v408h-196v82h196v391q0 100 -32.5 133t-122.5 33h-41v39q57 4 129.5 6t158.5 6t175.5 5t169.5 1q203 0 350 -48t242.5 -131t141.5 -194.5t46 -238.5q0 -117 -45 -237.5t-139.5 -219t-236.5 -161t-337 -62.5h-655zM397 152 q0 -31 3 -52.5t19.5 -35t50.5 -19.5t95 -6q102 0 178 8t135.5 27.5t107.5 51.5t95 79q29 29 58.5 70.5t54.5 98t41 125t16 148.5q0 115 -35.5 231.5t-128.5 208.5q-35 35 -80.5 66t-109 53.5t-145.5 34.5t-191 12q-63 0 -104 -3t-60 -5v-567h365v-82h-365v-444z" />
<glyph unicode="&#xd1;" horiz-adv-x="1665" d="M61 0v39h9q96 0 132 32.5t36 104.5v1008q-70 49 -172 51v39h321l965 -1006v815q0 47 -8.5 76t-31 45.5t-61.5 22.5t-100 8v39h479v-39q-115 0 -150.5 -23.5t-35.5 -83.5v-1142h-53l-1061 1110v-879q0 -55 8 -90t30.5 -54.5t62.5 -26.5t106 -7v-39h-476zM558 1476 q0 115 44 172.5t121 57.5q41 0 77 -19.5t69 -42.5q35 -23 64.5 -43t58.5 -20q86 0 94 125h22q6 -51 -6 -93t-34.5 -72t-53 -46.5t-63.5 -16.5q-41 0 -76 20.5t-70 43.5q-33 23 -63.5 42t-61.5 19q-84 0 -100 -127h-22z" />
<glyph unicode="&#xd2;" horiz-adv-x="1685" d="M109 608q0 154 55 282t155.5 220t237.5 143.5t301 51.5q145 0 275.5 -47.5t228.5 -131.5t156.5 -199.5t58.5 -254.5q0 -156 -58.5 -285t-157.5 -222t-231.5 -145.5t-281.5 -52.5q-150 0 -285 46t-235.5 131t-159.5 203t-59 261zM301 672q0 -143 46 -263t126 -207 t187.5 -135.5t230.5 -48.5q125 0 218 50.5t154.5 133.5t91 188t29.5 214q0 143 -43 262t-119.5 205t-183 134t-233.5 48q-135 0 -230.5 -56t-157 -142t-89 -188.5t-27.5 -194.5zM645 1726q0 27 17.5 43.5t46.5 16.5q31 0 65.5 -25t65.5 -65l188 -261h-26l-217 146 q-74 49 -107 83t-33 62z" />
<glyph unicode="&#xd3;" horiz-adv-x="1685" d="M109 608q0 154 55 282t155.5 220t237.5 143.5t301 51.5q145 0 275.5 -47.5t228.5 -131.5t156.5 -199.5t58.5 -254.5q0 -156 -58.5 -285t-157.5 -222t-231.5 -145.5t-281.5 -52.5q-150 0 -285 46t-235.5 131t-159.5 203t-59 261zM301 672q0 -143 46 -263t126 -207 t187.5 -135.5t230.5 -48.5q125 0 218 50.5t154.5 133.5t91 188t29.5 214q0 143 -43 262t-119.5 205t-183 134t-233.5 48q-135 0 -230.5 -56t-157 -142t-89 -188.5t-27.5 -194.5zM645 1435l189 261q31 41 65.5 65.5t65.5 24.5q29 0 46 -16.5t17 -43.5q0 -29 -32.5 -62.5 t-106.5 -82.5l-217 -146h-27z" />
<glyph unicode="&#xd4;" horiz-adv-x="1685" d="M109 608q0 154 55 282t155.5 220t237.5 143.5t301 51.5q145 0 275.5 -47.5t228.5 -131.5t156.5 -199.5t58.5 -254.5q0 -156 -58.5 -285t-157.5 -222t-231.5 -145.5t-281.5 -52.5q-150 0 -285 46t-235.5 131t-159.5 203t-59 261zM301 672q0 -143 46 -263t126 -207 t187.5 -135.5t230.5 -48.5q125 0 218 50.5t154.5 133.5t91 188t29.5 214q0 143 -43 262t-119.5 205t-183 134t-233.5 48q-135 0 -230.5 -56t-157 -142t-89 -188.5t-27.5 -194.5zM596 1431v35l221 369h58l217 -369v-35l-254 256z" />
<glyph unicode="&#xd5;" horiz-adv-x="1685" d="M109 608q0 154 55 282t155.5 220t237.5 143.5t301 51.5q145 0 275.5 -47.5t228.5 -131.5t156.5 -199.5t58.5 -254.5q0 -156 -58.5 -285t-157.5 -222t-231.5 -145.5t-281.5 -52.5q-150 0 -285 46t-235.5 131t-159.5 203t-59 261zM301 672q0 -143 46 -263t126 -207 t187.5 -135.5t230.5 -48.5q125 0 218 50.5t154.5 133.5t91 188t29.5 214q0 143 -43 262t-119.5 205t-183 134t-233.5 48q-135 0 -230.5 -56t-157 -142t-89 -188.5t-27.5 -194.5zM568 1476q0 115 44 172.5t121 57.5q41 0 77 -19.5t69 -42.5q35 -23 64.5 -43t58.5 -20 q86 0 94 125h22q6 -51 -6 -93t-34.5 -72t-53 -46.5t-63.5 -16.5q-41 0 -76 20.5t-70 43.5q-33 23 -63.5 42t-61.5 19q-84 0 -100 -127h-22z" />
<glyph unicode="&#xd6;" horiz-adv-x="1685" d="M109 608q0 154 55 282t155.5 220t237.5 143.5t301 51.5q145 0 275.5 -47.5t228.5 -131.5t156.5 -199.5t58.5 -254.5q0 -156 -58.5 -285t-157.5 -222t-231.5 -145.5t-281.5 -52.5q-150 0 -285 46t-235.5 131t-159.5 203t-59 261zM301 672q0 -143 46 -263t126 -207 t187.5 -135.5t230.5 -48.5q125 0 218 50.5t154.5 133.5t91 188t29.5 214q0 143 -43 262t-119.5 205t-183 134t-233.5 48q-135 0 -230.5 -56t-157 -142t-89 -188.5t-27.5 -194.5zM555 1581q0 37 26.5 63.5t63.5 26.5t63.5 -26.5t26.5 -63.5t-26.5 -63.5t-63.5 -26.5 t-63.5 26.5t-26.5 63.5zM953 1581q0 37 26.5 63.5t63.5 26.5t63.5 -26.5t26.5 -63.5t-26.5 -63.5t-63.5 -26.5t-63.5 26.5t-26.5 63.5z" />
<glyph unicode="&#xd7;" horiz-adv-x="1366" d="M195 236l421 421l-421 422l65 66l422 -422l424 424l68 -68l-424 -424l421 -422l-65 -65l-424 424l-422 -422z" />
<glyph unicode="&#xd8;" horiz-adv-x="1685" d="M111 618q0 133 51 257t146 219.5t232.5 153t311.5 57.5q86 0 154.5 -12.5t124 -32t96.5 -42t69 -40.5l162 184l29 -29l-156 -182q45 -33 89 -78t80 -104.5t57.5 -134t21.5 -168.5q0 -152 -57.5 -280t-157.5 -221t-232.5 -145.5t-283.5 -52.5q-29 0 -76 3t-106.5 15.5 t-126 38t-136.5 68.5l-196 -221l-29 25l191 219q-74 53 -123 114.5t-79 127t-43 132t-13 129.5zM303 666q0 -123 39 -239t117 -208l753 862q-82 88 -189.5 130t-225.5 42q-119 0 -211 -51t-155.5 -134t-95.5 -188.5t-32 -213.5zM485 190q16 -18 50 -46.5t84.5 -56.5 t116 -48.5t145.5 -20.5q141 0 238.5 56.5t156.5 142.5t84.5 189.5t25.5 197.5q0 123 -33.5 236.5t-113.5 210.5z" />
<glyph unicode="&#xd9;" horiz-adv-x="1622" d="M37 1235v39h526v-39h-18q-86 0 -124 -29.5t-38 -120.5v-569q0 -209 119 -325.5t348 -116.5q86 0 170 20.5t150.5 71.5t106.5 136t40 216v477q0 74 -7 119t-28.5 71.5t-61.5 37t-104 12.5v39h481v-39q-104 -2 -145 -46t-41 -142v-553q0 -94 -31.5 -188.5t-104.5 -170.5 t-188.5 -122t-281.5 -46q-147 0 -258 40t-184.5 108.5t-111.5 163t-38 204.5v598q0 49 -8 79t-27.5 46.5t-53.5 22.5t-87 6zM614 1726q0 27 17.5 43.5t46.5 16.5q31 0 65.5 -25t65.5 -65l188 -261h-26l-217 146q-74 49 -107 83t-33 62z" />
<glyph unicode="&#xda;" horiz-adv-x="1622" d="M37 1235v39h526v-39h-18q-86 0 -124 -29.5t-38 -120.5v-569q0 -209 119 -325.5t348 -116.5q86 0 170 20.5t150.5 71.5t106.5 136t40 216v477q0 74 -7 119t-28.5 71.5t-61.5 37t-104 12.5v39h481v-39q-104 -2 -145 -46t-41 -142v-553q0 -94 -31.5 -188.5t-104.5 -170.5 t-188.5 -122t-281.5 -46q-147 0 -258 40t-184.5 108.5t-111.5 163t-38 204.5v598q0 49 -8 79t-27.5 46.5t-53.5 22.5t-87 6zM614 1435l189 261q31 41 65.5 65.5t65.5 24.5q29 0 46 -16.5t17 -43.5q0 -29 -32.5 -62.5t-106.5 -82.5l-217 -146h-27z" />
<glyph unicode="&#xdb;" horiz-adv-x="1622" d="M37 1235v39h526v-39h-18q-86 0 -124 -29.5t-38 -120.5v-569q0 -209 119 -325.5t348 -116.5q86 0 170 20.5t150.5 71.5t106.5 136t40 216v477q0 74 -7 119t-28.5 71.5t-61.5 37t-104 12.5v39h481v-39q-104 -2 -145 -46t-41 -142v-553q0 -94 -31.5 -188.5t-104.5 -170.5 t-188.5 -122t-281.5 -46q-147 0 -258 40t-184.5 108.5t-111.5 163t-38 204.5v598q0 49 -8 79t-27.5 46.5t-53.5 22.5t-87 6zM565 1431v35l221 369h58l217 -369v-35l-254 256z" />
<glyph unicode="&#xdc;" horiz-adv-x="1622" d="M37 1235v39h526v-39h-18q-86 0 -124 -29.5t-38 -120.5v-569q0 -209 119 -325.5t348 -116.5q86 0 170 20.5t150.5 71.5t106.5 136t40 216v477q0 74 -7 119t-28.5 71.5t-61.5 37t-104 12.5v39h481v-39q-104 -2 -145 -46t-41 -142v-553q0 -94 -31.5 -188.5t-104.5 -170.5 t-188.5 -122t-281.5 -46q-147 0 -258 40t-184.5 108.5t-111.5 163t-38 204.5v598q0 49 -8 79t-27.5 46.5t-53.5 22.5t-87 6zM524 1581q0 37 26.5 63.5t63.5 26.5t63.5 -26.5t26.5 -63.5t-26.5 -63.5t-63.5 -26.5t-63.5 26.5t-26.5 63.5zM922 1581q0 37 26.5 63.5t63.5 26.5 t63.5 -26.5t26.5 -63.5t-26.5 -63.5t-63.5 -26.5t-63.5 26.5t-26.5 63.5z" />
<glyph unicode="&#xdd;" horiz-adv-x="1449" d="M-4 1235v39h545v-39q-119 0 -136.5 -30.5t27.5 -102.5l328 -506l289 491q49 86 21 117t-126 31v39h463v-39q-104 -8 -158.5 -49t-97.5 -113l-340 -575v-308q0 -82 35 -116.5t129 -34.5h26v-39h-563v39h39q96 0 130 36t34 111v289l-365 569q-37 59 -66.5 96.5t-60 58 t-67.5 27.5t-86 9zM528 1435l189 261q31 41 65.5 65.5t65.5 24.5q29 0 46 -16.5t17 -43.5q0 -29 -32.5 -62.5t-106.5 -82.5l-217 -146h-27z" />
<glyph unicode="&#xde;" horiz-adv-x="1153" d="M74 0v39h28q80 0 109 23.5t29 95.5v958q0 72 -29 95.5t-109 23.5h-28v39h501v-39h-28q-80 0 -108.5 -23.5t-28.5 -95.5v-98q43 2 86 3t57 1q160 0 262.5 -35t160.5 -88t80.5 -116.5t22.5 -123.5q0 -90 -34.5 -162.5t-99 -122.5t-156 -78t-205.5 -28q-47 0 -87 3t-87 14 v-88q0 -86 32.5 -122t130.5 -36h68v-39h-567zM410 324q20 -4 51 -10.5t59 -6.5q84 0 151.5 26.5t116 75t74 114t25.5 143.5q0 141 -77 229t-259 88q-35 0 -70 -1t-71 -7v-651z" />
<glyph unicode="&#xdf;" d="M41 0v39q82 0 107.5 22.5t25.5 83.5v748q0 131 33 222t87 149.5t123.5 85t143.5 26.5q72 0 135.5 -23.5t109.5 -64.5t72.5 -96t26.5 -119q0 -109 -75.5 -191.5t-213.5 -129.5v-4q63 -12 127 -42t115 -76t83 -110.5t32 -150.5q0 -104 -36 -178t-88 -122.5t-112.5 -71 t-107.5 -22.5q-41 0 -67.5 18.5t-26.5 47.5q0 23 14 39t33 16q16 0 30.5 -7t29.5 -15t30.5 -15.5t34.5 -7.5q47 0 79.5 80t32.5 203q0 106 -23.5 187t-72.5 130q-45 45 -102.5 59.5t-139.5 14.5v31q137 14 212 92t75 207q0 123 -62.5 197.5t-166.5 74.5q-55 0 -97.5 -23.5 t-72 -65.5t-44 -99.5t-14.5 -122.5v-850q0 -80 30 -103.5t103 -23.5v-39h-403z" />
<glyph unicode="&#xe0;" horiz-adv-x="811" d="M74 143q0 47 19.5 80t52 55.5t76.5 38t93 27.5q33 8 81 26.5t102 51.5v162q0 43 -4.5 71.5t-30.5 59.5q-20 25 -50 42t-65 17q-51 0 -89 -33.5t-38 -66.5q0 -16 10 -39l-139 -68q-6 18 -6 29q0 27 28.5 68t72.5 78.5t98.5 64.5t103.5 27q47 0 109.5 -25t105.5 -84 q12 -16 18.5 -30.5t9.5 -34t3 -45v-66.5v-275q0 -61 1 -100t6 -61.5t15.5 -30.5t30.5 -8q16 0 39 6t61 39l11 -31q-84 -68 -130 -90.5t-73 -22.5q-31 0 -49.5 15.5t-28.5 35t-13 41t-3 33.5q-53 -43 -89 -68.5t-61.5 -37.5t-46 -15.5t-41.5 -3.5q-90 0 -140 46.5t-50 121.5z M205 168q0 -55 37 -88t84 -33q12 0 24 3t30.5 12.5t46.5 26.5t71 48v244q-29 -16 -56.5 -28.5t-64.5 -28.5q-47 -18 -80 -34t-53.5 -32t-29.5 -37.5t-9 -52.5zM209 1290q0 27 17.5 43.5t46.5 16.5q31 0 65.5 -25t65.5 -65l188 -261h-26l-217 146q-74 49 -107 83t-33 62z" />
<glyph unicode="&#xe1;" horiz-adv-x="811" d="M74 143q0 47 19.5 80t52 55.5t76.5 38t93 27.5q33 8 81 26.5t102 51.5v162q0 43 -4.5 71.5t-30.5 59.5q-20 25 -50 42t-65 17q-51 0 -89 -33.5t-38 -66.5q0 -16 10 -39l-139 -68q-6 18 -6 29q0 27 28.5 68t72.5 78.5t98.5 64.5t103.5 27q47 0 109.5 -25t105.5 -84 q12 -16 18.5 -30.5t9.5 -34t3 -45v-66.5v-275q0 -61 1 -100t6 -61.5t15.5 -30.5t30.5 -8q16 0 39 6t61 39l11 -31q-84 -68 -130 -90.5t-73 -22.5q-31 0 -49.5 15.5t-28.5 35t-13 41t-3 33.5q-53 -43 -89 -68.5t-61.5 -37.5t-46 -15.5t-41.5 -3.5q-90 0 -140 46.5t-50 121.5z M205 168q0 -55 37 -88t84 -33q12 0 24 3t30.5 12.5t46.5 26.5t71 48v244q-29 -16 -56.5 -28.5t-64.5 -28.5q-47 -18 -80 -34t-53.5 -32t-29.5 -37.5t-9 -52.5zM209 999l189 261q31 41 65.5 65.5t65.5 24.5q29 0 46 -16.5t17 -43.5q0 -29 -32.5 -62.5t-106.5 -82.5l-217 -146 h-27z" />
<glyph unicode="&#xe2;" horiz-adv-x="811" d="M74 143q0 47 19.5 80t52 55.5t76.5 38t93 27.5q33 8 81 26.5t102 51.5v162q0 43 -4.5 71.5t-30.5 59.5q-20 25 -50 42t-65 17q-51 0 -89 -33.5t-38 -66.5q0 -16 10 -39l-139 -68q-6 18 -6 29q0 27 28.5 68t72.5 78.5t98.5 64.5t103.5 27q47 0 109.5 -25t105.5 -84 q12 -16 18.5 -30.5t9.5 -34t3 -45v-66.5v-275q0 -61 1 -100t6 -61.5t15.5 -30.5t30.5 -8q16 0 39 6t61 39l11 -31q-84 -68 -130 -90.5t-73 -22.5q-31 0 -49.5 15.5t-28.5 35t-13 41t-3 33.5q-53 -43 -89 -68.5t-61.5 -37.5t-46 -15.5t-41.5 -3.5q-90 0 -140 46.5t-50 121.5z M160 995v35l221 369h58l217 -369v-35l-254 256zM205 168q0 -55 37 -88t84 -33q12 0 24 3t30.5 12.5t46.5 26.5t71 48v244q-29 -16 -56.5 -28.5t-64.5 -28.5q-47 -18 -80 -34t-53.5 -32t-29.5 -37.5t-9 -52.5z" />
<glyph unicode="&#xe3;" horiz-adv-x="811" d="M74 143q0 47 19.5 80t52 55.5t76.5 38t93 27.5q33 8 81 26.5t102 51.5v162q0 43 -4.5 71.5t-30.5 59.5q-20 25 -50 42t-65 17q-51 0 -89 -33.5t-38 -66.5q0 -16 10 -39l-139 -68q-6 18 -6 29q0 27 28.5 68t72.5 78.5t98.5 64.5t103.5 27q47 0 109.5 -25t105.5 -84 q12 -16 18.5 -30.5t9.5 -34t3 -45v-66.5v-275q0 -61 1 -100t6 -61.5t15.5 -30.5t30.5 -8q16 0 39 6t61 39l11 -31q-84 -68 -130 -90.5t-73 -22.5q-31 0 -49.5 15.5t-28.5 35t-13 41t-3 33.5q-53 -43 -89 -68.5t-61.5 -37.5t-46 -15.5t-41.5 -3.5q-90 0 -140 46.5t-50 121.5z M132 1040q0 115 44 172.5t121 57.5q41 0 77 -19.5t69 -42.5q35 -23 64.5 -43t58.5 -20q86 0 94 125h22q6 -51 -6 -93t-34.5 -72t-53 -46.5t-63.5 -16.5q-41 0 -76 20.5t-70 43.5q-33 23 -63.5 42t-61.5 19q-84 0 -100 -127h-22zM205 168q0 -55 37 -88t84 -33q12 0 24 3 t30.5 12.5t46.5 26.5t71 48v244q-29 -16 -56.5 -28.5t-64.5 -28.5q-47 -18 -80 -34t-53.5 -32t-29.5 -37.5t-9 -52.5z" />
<glyph unicode="&#xe4;" horiz-adv-x="811" d="M74 143q0 47 19.5 80t52 55.5t76.5 38t93 27.5q33 8 81 26.5t102 51.5v162q0 43 -4.5 71.5t-30.5 59.5q-20 25 -50 42t-65 17q-51 0 -89 -33.5t-38 -66.5q0 -16 10 -39l-139 -68q-6 18 -6 29q0 27 28.5 68t72.5 78.5t98.5 64.5t103.5 27q47 0 109.5 -25t105.5 -84 q12 -16 18.5 -30.5t9.5 -34t3 -45v-66.5v-275q0 -61 1 -100t6 -61.5t15.5 -30.5t30.5 -8q16 0 39 6t61 39l11 -31q-84 -68 -130 -90.5t-73 -22.5q-31 0 -49.5 15.5t-28.5 35t-13 41t-3 33.5q-53 -43 -89 -68.5t-61.5 -37.5t-46 -15.5t-41.5 -3.5q-90 0 -140 46.5t-50 121.5z M78 1145q0 37 26.5 63.5t63.5 26.5t63.5 -26.5t26.5 -63.5t-26.5 -63.5t-63.5 -26.5t-63.5 26.5t-26.5 63.5zM205 168q0 -55 37 -88t84 -33q12 0 24 3t30.5 12.5t46.5 26.5t71 48v244q-29 -16 -56.5 -28.5t-64.5 -28.5q-47 -18 -80 -34t-53.5 -32t-29.5 -37.5t-9 -52.5z M476 1145q0 37 26.5 63.5t63.5 26.5t63.5 -26.5t26.5 -63.5t-26.5 -63.5t-63.5 -26.5t-63.5 26.5t-26.5 63.5z" />
<glyph unicode="&#xe5;" horiz-adv-x="811" d="M74 143q0 47 19.5 80t52 55.5t76.5 38t93 27.5q33 8 81 26.5t102 51.5v162q0 43 -4.5 71.5t-30.5 59.5q-20 25 -50 42t-65 17q-51 0 -89 -33.5t-38 -66.5q0 -16 10 -39l-139 -68q-6 18 -6 29q0 27 28.5 68t72.5 78.5t98.5 64.5t103.5 27q47 0 109.5 -25t105.5 -84 q12 -16 18.5 -30.5t9.5 -34t3 -45v-66.5v-275q0 -61 1 -100t6 -61.5t15.5 -30.5t30.5 -8q16 0 39 6t61 39l11 -31q-84 -68 -130 -90.5t-73 -22.5q-31 0 -49.5 15.5t-28.5 35t-13 41t-3 33.5q-53 -43 -89 -68.5t-61.5 -37.5t-46 -15.5t-41.5 -3.5q-90 0 -140 46.5t-50 121.5z M205 168q0 -55 37 -88t84 -33q12 0 24 3t30.5 12.5t46.5 26.5t71 48v244q-29 -16 -56.5 -28.5t-64.5 -28.5q-47 -18 -80 -34t-53.5 -32t-29.5 -37.5t-9 -52.5zM222 1133q0 78 54 132t132 54t132 -54.5t54 -131.5q0 -78 -54 -132.5t-132 -54.5t-132 54.5t-54 132.5zM271 1133 q0 -57 40 -97.5t97 -40.5t97 40t40 98q0 57 -40 97t-97 40t-97 -40t-40 -97z" />
<glyph unicode="&#xe6;" horiz-adv-x="1280" d="M74 141q0 49 18.5 82t52 54.5t84 36t113.5 30.5q41 10 81 25.5t91 50.5v147q0 61 -7 88t-30 56q-49 59 -115 59q-55 0 -94 -31.5t-39 -76.5v-10.5t4 -14.5l3 -8l-136 -62q-6 10 -7 16.5t-1 12.5q0 37 29 74t98 90q100 74 178 74q66 0 129.5 -35t96.5 -88q55 61 122.5 92 t135.5 31q104 0 160.5 -32t87 -76t48 -89t42.5 -70v-47h-572v-49q0 -53 7.5 -112.5t19.5 -94.5q27 -82 97.5 -133t156.5 -51q72 0 126 28.5t117 96.5l25 -25q-86 -100 -173 -152.5t-171 -52.5q-180 0 -287 177q-72 -86 -154.5 -131.5t-154.5 -45.5q-78 0 -130 47.5 t-52 118.5zM209 170q0 -55 32.5 -89t86.5 -34q41 0 90 24.5t96 73.5v234q-35 -25 -79 -42.5t-79 -27.5q-68 -23 -107.5 -49.5t-39.5 -89.5zM653 573h394q-16 98 -71.5 160t-119.5 62q-49 0 -88 -28t-66 -62q-20 -29 -31.5 -58t-17.5 -74z" />
<glyph unicode="&#xe7;" horiz-adv-x="874" d="M94 371q0 96 37 180t101.5 147.5t149.5 99.5t183 36t164 -34t66 -83q0 -27 -17.5 -44.5t-42.5 -17.5q-37 0 -63.5 19.5t-51 43t-53 43t-71.5 19.5q-53 0 -101.5 -29.5t-84.5 -78.5t-57.5 -116t-21.5 -140q0 -76 21.5 -141.5t60.5 -113.5t92.5 -75t114.5 -27 q74 0 134.5 35t115.5 113l31 -19q-63 -100 -147.5 -154t-202.5 -59l-45 -75q33 6 61.5 -5.5t50 -33t33.5 -52t12 -61.5q0 -74 -51 -125t-123 -51q-23 0 -44 4t-44 12l14 29q27 -8 54 -8q45 0 76.5 30.5t31.5 73.5q0 35 -17.5 54.5t-47.5 19.5q-45 0 -131 -41l139 231 q-88 4 -149.5 44t-100.5 98.5t-57.5 125t-18.5 126.5z" />
<glyph unicode="&#xe8;" horiz-adv-x="897" d="M98 395q0 82 27 161t78 140.5t123.5 99.5t167.5 38q104 0 160.5 -32t87 -76t48 -89t41.5 -70v-47h-598q-4 -23 -6 -44t-2 -42q0 -80 25.5 -145.5t68.5 -112.5t99.5 -72.5t118.5 -25.5q78 0 139 31.5t121 101.5l22 -25q-33 -41 -72.5 -78.5t-86 -67.5t-98.5 -47.5 t-107 -17.5q-76 0 -140.5 32t-112.5 89.5t-76 134t-28 164.5zM240 573h419q-16 100 -72.5 161t-129.5 61q-25 0 -55.5 -8.5t-60.5 -32t-56.5 -66.5t-44.5 -115zM252 1290q0 27 17.5 43.5t46.5 16.5q31 0 65.5 -25t65.5 -65l188 -261h-26l-217 146q-74 49 -107 83t-33 62z " />
<glyph unicode="&#xe9;" horiz-adv-x="897" d="M98 395q0 82 27 161t78 140.5t123.5 99.5t167.5 38q104 0 160.5 -32t87 -76t48 -89t41.5 -70v-47h-598q-4 -23 -6 -44t-2 -42q0 -80 25.5 -145.5t68.5 -112.5t99.5 -72.5t118.5 -25.5q78 0 139 31.5t121 101.5l22 -25q-33 -41 -72.5 -78.5t-86 -67.5t-98.5 -47.5 t-107 -17.5q-76 0 -140.5 32t-112.5 89.5t-76 134t-28 164.5zM240 573h419q-16 100 -72.5 161t-129.5 61q-25 0 -55.5 -8.5t-60.5 -32t-56.5 -66.5t-44.5 -115zM252 999l189 261q31 41 65.5 65.5t65.5 24.5q29 0 46 -16.5t17 -43.5q0 -29 -32.5 -62.5t-106.5 -82.5 l-217 -146h-27z" />
<glyph unicode="&#xea;" horiz-adv-x="897" d="M98 395q0 82 27 161t78 140.5t123.5 99.5t167.5 38q104 0 160.5 -32t87 -76t48 -89t41.5 -70v-47h-598q-4 -23 -6 -44t-2 -42q0 -80 25.5 -145.5t68.5 -112.5t99.5 -72.5t118.5 -25.5q78 0 139 31.5t121 101.5l22 -25q-33 -41 -72.5 -78.5t-86 -67.5t-98.5 -47.5 t-107 -17.5q-76 0 -140.5 32t-112.5 89.5t-76 134t-28 164.5zM203 995v35l221 369h58l217 -369v-35l-254 256zM240 573h419q-16 100 -72.5 161t-129.5 61q-25 0 -55.5 -8.5t-60.5 -32t-56.5 -66.5t-44.5 -115z" />
<glyph unicode="&#xeb;" horiz-adv-x="897" d="M98 395q0 82 27 161t78 140.5t123.5 99.5t167.5 38q104 0 160.5 -32t87 -76t48 -89t41.5 -70v-47h-598q-4 -23 -6 -44t-2 -42q0 -80 25.5 -145.5t68.5 -112.5t99.5 -72.5t118.5 -25.5q78 0 139 31.5t121 101.5l22 -25q-33 -41 -72.5 -78.5t-86 -67.5t-98.5 -47.5 t-107 -17.5q-76 0 -140.5 32t-112.5 89.5t-76 134t-28 164.5zM162 1145q0 37 26.5 63.5t63.5 26.5t63.5 -26.5t26.5 -63.5t-26.5 -63.5t-63.5 -26.5t-63.5 26.5t-26.5 63.5zM240 573h419q-16 100 -72.5 161t-129.5 61q-25 0 -55.5 -8.5t-60.5 -32t-56.5 -66.5t-44.5 -115z M560 1145q0 37 26.5 63.5t63.5 26.5t63.5 -26.5t26.5 -63.5t-26.5 -63.5t-63.5 -26.5t-63.5 26.5t-26.5 63.5z" />
<glyph unicode="&#xec;" horiz-adv-x="532" d="M37 0v39q94 0 132 33.5t38 115.5v412q0 59 -11.5 75.5t-52.5 24.5l-96 19v33l266 92h31v-688q0 -53 33 -85t115 -32v-39h-455zM69 1290q0 27 17.5 43.5t46.5 16.5q31 0 65.5 -25t65.5 -65l188 -261h-26l-217 146q-74 49 -107 83t-33 62z" />
<glyph unicode="&#xed;" horiz-adv-x="532" d="M37 0v39q94 0 132 33.5t38 115.5v412q0 59 -11.5 75.5t-52.5 24.5l-96 19v33l266 92h31v-688q0 -53 33 -85t115 -32v-39h-455zM69 999l189 261q31 41 65.5 65.5t65.5 24.5q29 0 46 -16.5t17 -43.5q0 -29 -32.5 -62.5t-106.5 -82.5l-217 -146h-27z" />
<glyph unicode="&#xee;" horiz-adv-x="532" d="M20 995v35l221 369h58l217 -369v-35l-254 256zM37 0v39q94 0 132 33.5t38 115.5v412q0 59 -11.5 75.5t-52.5 24.5l-96 19v33l266 92h31v-688q0 -53 33 -85t115 -32v-39h-455z" />
<glyph unicode="&#xef;" horiz-adv-x="532" d="M-21 1145q0 37 26.5 63.5t63.5 26.5t63.5 -26.5t26.5 -63.5t-26.5 -63.5t-63.5 -26.5t-63.5 26.5t-26.5 63.5zM37 0v39q94 0 132 33.5t38 115.5v412q0 59 -11.5 75.5t-52.5 24.5l-96 19v33l266 92h31v-688q0 -53 33 -85t115 -32v-39h-455zM377 1145q0 37 26.5 63.5 t63.5 26.5t63.5 -26.5t26.5 -63.5t-26.5 -63.5t-63.5 -26.5t-63.5 26.5t-26.5 63.5z" />
<glyph unicode="&#xf0;" d="M92 399q0 106 39 187.5t102.5 136.5t142.5 83t159 28q41 0 95 -10.5t122 -63.5l4 4q-31 88 -82 172t-121 156l-262 -136l-19 35l252 129q-43 41 -94 77t-106 63l26 45q160 -43 273 -134l256 134l16 -37l-238 -123q88 -74 148.5 -165t98.5 -182t54.5 -174t16.5 -143 q0 -158 -48 -256t-117 -153.5t-143.5 -76t-125.5 -20.5q-94 0 -177 33t-142.5 89.5t-94.5 134t-35 167.5zM246 469q0 -92 24.5 -174t68.5 -141.5t103.5 -94t128.5 -34.5q49 0 96.5 22.5t85.5 64.5t61.5 103t23.5 137q0 88 -26 166t-69 137.5t-102 94t-127 34.5 q-53 0 -102.5 -24.5t-86 -67.5t-58 -100t-21.5 -123z" />
<glyph unicode="&#xf1;" d="M53 0v39q68 0 102.5 35t34.5 94v430q0 57 -10 74.5t-51 25.5l-70 15v32l236 86h33v-159q104 66 190 114t162 48q104 0 161.5 -77t57.5 -231q0 -102 -2 -166.5t-5 -107.5t-6 -71.5t-3 -59.5q-2 -41 24.5 -61.5t89.5 -20.5h45v-39h-440v39q45 2 72.5 12t44.5 27 q29 29 36 142.5t7 318.5q0 61 -13.5 102t-37 66.5t-52 36t-59.5 10.5q-49 0 -120.5 -38t-151.5 -93v-445q0 -86 26.5 -112.5t110.5 -26.5v-39h-412zM259 1040q0 115 44 172.5t121 57.5q41 0 77 -19.5t69 -42.5q35 -23 64.5 -43t58.5 -20q86 0 94 125h22q6 -51 -6 -93 t-34.5 -72t-53 -46.5t-63.5 -16.5q-41 0 -76 20.5t-70 43.5q-33 23 -63.5 42t-61.5 19q-84 0 -100 -127h-22z" />
<glyph unicode="&#xf2;" d="M92 399q0 106 39 187.5t102.5 136.5t142.5 83t159 28q94 0 173.5 -33t139 -91.5t93.5 -136t34 -170.5q0 -90 -34 -168.5t-92 -136t-137 -90.5t-171 -33q-94 0 -177 33t-142.5 89.5t-94.5 134t-35 167.5zM246 469q0 -92 24.5 -174t67.5 -141.5t101.5 -94t123.5 -34.5 q45 0 91 22.5t83 64.5t60.5 103t23.5 137q0 88 -24.5 166t-67.5 137.5t-100.5 94t-122.5 34.5q-51 0 -98.5 -24.5t-83 -67.5t-57 -100t-21.5 -123zM336 1290q0 27 17.5 43.5t46.5 16.5q31 0 65.5 -25t65.5 -65l188 -261h-26l-217 146q-74 49 -107 83t-33 62z" />
<glyph unicode="&#xf3;" d="M92 399q0 106 39 187.5t102.5 136.5t142.5 83t159 28q94 0 173.5 -33t139 -91.5t93.5 -136t34 -170.5q0 -90 -34 -168.5t-92 -136t-137 -90.5t-171 -33q-94 0 -177 33t-142.5 89.5t-94.5 134t-35 167.5zM246 469q0 -92 24.5 -174t67.5 -141.5t101.5 -94t123.5 -34.5 q45 0 91 22.5t83 64.5t60.5 103t23.5 137q0 88 -24.5 166t-67.5 137.5t-100.5 94t-122.5 34.5q-51 0 -98.5 -24.5t-83 -67.5t-57 -100t-21.5 -123zM336 999l189 261q31 41 65.5 65.5t65.5 24.5q29 0 46 -16.5t17 -43.5q0 -29 -32.5 -62.5t-106.5 -82.5l-217 -146h-27z" />
<glyph unicode="&#xf4;" d="M92 399q0 106 39 187.5t102.5 136.5t142.5 83t159 28q94 0 173.5 -33t139 -91.5t93.5 -136t34 -170.5q0 -90 -34 -168.5t-92 -136t-137 -90.5t-171 -33q-94 0 -177 33t-142.5 89.5t-94.5 134t-35 167.5zM246 469q0 -92 24.5 -174t67.5 -141.5t101.5 -94t123.5 -34.5 q45 0 91 22.5t83 64.5t60.5 103t23.5 137q0 88 -24.5 166t-67.5 137.5t-100.5 94t-122.5 34.5q-51 0 -98.5 -24.5t-83 -67.5t-57 -100t-21.5 -123zM287 995v35l221 369h58l217 -369v-35l-254 256z" />
<glyph unicode="&#xf5;" d="M92 399q0 106 39 187.5t102.5 136.5t142.5 83t159 28q94 0 173.5 -33t139 -91.5t93.5 -136t34 -170.5q0 -90 -34 -168.5t-92 -136t-137 -90.5t-171 -33q-94 0 -177 33t-142.5 89.5t-94.5 134t-35 167.5zM246 469q0 -92 24.5 -174t67.5 -141.5t101.5 -94t123.5 -34.5 q45 0 91 22.5t83 64.5t60.5 103t23.5 137q0 88 -24.5 166t-67.5 137.5t-100.5 94t-122.5 34.5q-51 0 -98.5 -24.5t-83 -67.5t-57 -100t-21.5 -123zM259 1040q0 115 44 172.5t121 57.5q41 0 77 -19.5t69 -42.5q35 -23 64.5 -43t58.5 -20q86 0 94 125h22q6 -51 -6 -93 t-34.5 -72t-53 -46.5t-63.5 -16.5q-41 0 -76 20.5t-70 43.5q-33 23 -63.5 42t-61.5 19q-84 0 -100 -127h-22z" />
<glyph unicode="&#xf6;" d="M92 399q0 106 39 187.5t102.5 136.5t142.5 83t159 28q94 0 173.5 -33t139 -91.5t93.5 -136t34 -170.5q0 -90 -34 -168.5t-92 -136t-137 -90.5t-171 -33q-94 0 -177 33t-142.5 89.5t-94.5 134t-35 167.5zM246 469q0 -92 24.5 -174t67.5 -141.5t101.5 -94t123.5 -34.5 q45 0 91 22.5t83 64.5t60.5 103t23.5 137q0 88 -24.5 166t-67.5 137.5t-100.5 94t-122.5 34.5q-51 0 -98.5 -24.5t-83 -67.5t-57 -100t-21.5 -123zM246 1145q0 37 26.5 63.5t63.5 26.5t63.5 -26.5t26.5 -63.5t-26.5 -63.5t-63.5 -26.5t-63.5 26.5t-26.5 63.5zM644 1145 q0 37 26.5 63.5t63.5 26.5t63.5 -26.5t26.5 -63.5t-26.5 -63.5t-63.5 -26.5t-63.5 26.5t-26.5 63.5z" />
<glyph unicode="&#xf7;" horiz-adv-x="1366" d="M145 610v90h1076v-90h-1076zM616 238q0 27 20.5 46t47.5 19t46.5 -19.5t19.5 -45.5q0 -27 -19.5 -47.5t-46.5 -20.5t-47.5 20.5t-20.5 47.5zM616 1073q0 27 20.5 47.5t47.5 20.5t46.5 -20.5t19.5 -47.5t-19.5 -46t-46.5 -19t-47.5 19.5t-20.5 45.5z" />
<glyph unicode="&#xf8;" d="M92 401q0 102 38 182.5t100.5 135.5t141.5 85t160 30q94 0 161 -27t114 -62l117 132l28 -25l-116 -133q20 -18 44.5 -46t45 -67t35 -88t14.5 -115q0 -102 -38 -182t-100.5 -134t-140.5 -83t-157 -29q-55 0 -129 17.5t-148 70.5l-139 -159l-29 26l139 158 q-141 123 -141 313zM246 463q0 -66 17.5 -139.5t53.5 -139.5l412 471q-41 57 -96 93t-127 36q-55 0 -102.5 -26.5t-83 -70.5t-55 -102.5t-19.5 -121.5zM340 152q12 -18 32.5 -40t49.5 -41.5t64.5 -32.5t74.5 -13q27 0 71 15t86 52t72.5 100.5t30.5 159.5q0 82 -18.5 145.5 t-52.5 123.5z" />
<glyph unicode="&#xf9;" d="M51 743v31l264 57v-573q0 -47 15.5 -82t42 -57.5t59.5 -33.5t68 -11q53 0 116.5 29.5t126.5 82.5v441q0 59 -13 78.5t-62 29.5l-103 19v28l316 49v-690q0 -43 19.5 -53t74.5 0l43 8v-37l-275 -84v164q-227 -164 -348 -164q-39 0 -77.5 13.5t-69.5 39t-50.5 65.5t-19.5 91 v455q0 37 -11 55.5t-44 28.5zM336 1290q0 27 17.5 43.5t46.5 16.5q31 0 65.5 -25t65.5 -65l188 -261h-26l-217 146q-74 49 -107 83t-33 62z" />
<glyph unicode="&#xfa;" d="M51 743v31l264 57v-573q0 -47 15.5 -82t42 -57.5t59.5 -33.5t68 -11q53 0 116.5 29.5t126.5 82.5v441q0 59 -13 78.5t-62 29.5l-103 19v28l316 49v-690q0 -43 19.5 -53t74.5 0l43 8v-37l-275 -84v164q-227 -164 -348 -164q-39 0 -77.5 13.5t-69.5 39t-50.5 65.5t-19.5 91 v455q0 37 -11 55.5t-44 28.5zM336 999l189 261q31 41 65.5 65.5t65.5 24.5q29 0 46 -16.5t17 -43.5q0 -29 -32.5 -62.5t-106.5 -82.5l-217 -146h-27z" />
<glyph unicode="&#xfb;" d="M51 743v31l264 57v-573q0 -47 15.5 -82t42 -57.5t59.5 -33.5t68 -11q53 0 116.5 29.5t126.5 82.5v441q0 59 -13 78.5t-62 29.5l-103 19v28l316 49v-690q0 -43 19.5 -53t74.5 0l43 8v-37l-275 -84v164q-227 -164 -348 -164q-39 0 -77.5 13.5t-69.5 39t-50.5 65.5t-19.5 91 v455q0 37 -11 55.5t-44 28.5zM287 995v35l221 369h58l217 -369v-35l-254 256z" />
<glyph unicode="&#xfc;" d="M51 743v31l264 57v-573q0 -47 15.5 -82t42 -57.5t59.5 -33.5t68 -11q53 0 116.5 29.5t126.5 82.5v441q0 59 -13 78.5t-62 29.5l-103 19v28l316 49v-690q0 -43 19.5 -53t74.5 0l43 8v-37l-275 -84v164q-227 -164 -348 -164q-39 0 -77.5 13.5t-69.5 39t-50.5 65.5t-19.5 91 v455q0 37 -11 55.5t-44 28.5zM246 1145q0 37 26.5 63.5t63.5 26.5t63.5 -26.5t26.5 -63.5t-26.5 -63.5t-63.5 -26.5t-63.5 26.5t-26.5 63.5zM644 1145q0 37 26.5 63.5t63.5 26.5t63.5 -26.5t26.5 -63.5t-26.5 -63.5t-63.5 -26.5t-63.5 26.5t-26.5 63.5z" />
<glyph unicode="&#xfd;" horiz-adv-x="960" d="M-10 774v37h411v-37q-94 -2 -111.5 -30.5t13.5 -94.5l232 -499l174 434q23 59 27.5 95t-8.5 56.5t-43 28.5t-75 10v37h340v-37q-63 -8 -102 -50t-68 -114l-348 -868q-47 -115 -87 -167t-93 -52q-37 0 -60.5 20.5t-23.5 50.5q0 31 19.5 46.5t46 23.5t56 17.5t48.5 27.5 q16 16 36.5 51t33.5 66l61 154l-317 673q-29 63 -63 91t-99 30zM282 999l189 261q31 41 65.5 65.5t65.5 24.5q29 0 46 -16.5t17 -43.5q0 -29 -32.5 -62.5t-106.5 -82.5l-217 -146h-27z" />
<glyph unicode="&#xfe;" horiz-adv-x="1024" d="M12 -438h21q78 0 107.5 31.5t29.5 119.5v1452q0 41 -10 59.5t-56 22.5l-90 10v35l262 84h31v-698q111 82 183.5 115.5t134.5 33.5q59 0 114.5 -31.5t97.5 -84t66.5 -121t24.5 -144.5q0 -92 -35 -176t-94.5 -147.5t-138 -100t-166.5 -36.5q-41 0 -84 9t-103 32v-332 q0 -78 36 -105.5t101 -27.5h52v-39h-484v39zM307 164q55 -53 120 -84t122 -31q53 0 97 24.5t76 66.5t50.5 100.5t18.5 126.5q0 76 -20.5 141t-56.5 114.5t-85 77t-107 27.5q-47 0 -103.5 -26.5t-111.5 -73.5v-463z" />
<glyph unicode="&#xff;" horiz-adv-x="960" d="M-10 774v37h411v-37q-94 -2 -111.5 -30.5t13.5 -94.5l232 -499l174 434q23 59 27.5 95t-8.5 56.5t-43 28.5t-75 10v37h340v-37q-63 -8 -102 -50t-68 -114l-348 -868q-47 -115 -87 -167t-93 -52q-37 0 -60.5 20.5t-23.5 50.5q0 31 19.5 46.5t46 23.5t56 17.5t48.5 27.5 q16 16 36.5 51t33.5 66l61 154l-317 673q-29 63 -63 91t-99 30zM192 1145q0 37 26.5 63.5t63.5 26.5t63.5 -26.5t26.5 -63.5t-26.5 -63.5t-63.5 -26.5t-63.5 26.5t-26.5 63.5zM590 1145q0 37 26.5 63.5t63.5 26.5t63.5 -26.5t26.5 -63.5t-26.5 -63.5t-63.5 -26.5t-63.5 26.5 t-26.5 63.5z" />
<glyph unicode="&#x152;" horiz-adv-x="2027" d="M117 629q0 94 34.5 208.5t115.5 215t215 168t331 67.5q41 0 89 -2t102 -6q53 -2 108 -4t113 -2h610l16 -285h-36q-10 72 -25.5 113t-35 63.5t-42 28.5t-49.5 6h-416v-504h352q55 0 83 32t36 122h39v-389h-39q-6 55 -16 87t-27.5 48t-41 21.5t-54.5 5.5h-332v-549h410 q53 0 90 11t63.5 38t46 72t37.5 110h37l-33 -305h-817q-31 0 -81 -2t-99 -4q-51 -4 -93 -6t-58 -2q-113 0 -225.5 44t-203 127t-147.5 201.5t-57 270.5zM295 662q0 -135 40 -250t109.5 -198t161.5 -130t199 -47q35 0 82 9t89 40t71.5 86t29.5 147v693q0 115 -77.5 170 t-213.5 55q-129 0 -222 -45t-152.5 -123t-88 -182.5t-28.5 -224.5z" />
<glyph unicode="&#x153;" horiz-adv-x="1515" d="M94 408q0 90 35 166.5t94.5 135t138 91.5t168.5 33q92 0 169 -40t124 -112q66 80 136.5 116t162.5 36q96 0 150.5 -30t85.5 -73t49 -88t45 -76v-47h-555q-6 -102 15.5 -186t60.5 -144.5t91 -93.5t110 -33q57 0 113 40t128 106l21 -23q-84 -92 -170 -151.5t-183 -59.5 q-143 0 -237 150q-111 -150 -311 -150q-94 0 -174 33t-139.5 91.5t-93.5 137t-34 171.5zM248 457q0 -96 27.5 -176t72.5 -136.5t99.5 -88t105.5 -31.5q104 0 161.5 85.5t57.5 243.5q0 94 -20.5 173t-57.5 136.5t-88 89t-112 31.5q-37 0 -80 -21.5t-80 -62.5t-61.5 -102 t-24.5 -141zM901 573h363q0 111 -50.5 166.5t-121.5 55.5q-27 0 -49.5 -9.5t-40 -21.5t-28.5 -25.5t-18 -21.5q-23 -31 -36 -62.5t-19 -81.5z" />
<glyph unicode="&#x178;" horiz-adv-x="1449" d="M-4 1235v39h545v-39q-119 0 -136.5 -30.5t27.5 -102.5l328 -506l289 491q49 86 21 117t-126 31v39h463v-39q-104 -8 -158.5 -49t-97.5 -113l-340 -575v-308q0 -82 35 -116.5t129 -34.5h26v-39h-563v39h39q96 0 130 36t34 111v289l-365 569q-37 59 -66.5 96.5t-60 58 t-67.5 27.5t-86 9zM438 1581q0 37 26.5 63.5t63.5 26.5t63.5 -26.5t26.5 -63.5t-26.5 -63.5t-63.5 -26.5t-63.5 26.5t-26.5 63.5zM836 1581q0 37 26.5 63.5t63.5 26.5t63.5 -26.5t26.5 -63.5t-26.5 -63.5t-63.5 -26.5t-63.5 26.5t-26.5 63.5z" />
<glyph unicode="&#x2c6;" horiz-adv-x="681" d="M94 995v35l221 369h58l217 -369v-35l-254 256z" />
<glyph unicode="&#x2dc;" horiz-adv-x="681" d="M66 1040q0 115 44 172.5t121 57.5q41 0 77 -19.5t69 -42.5q35 -23 64.5 -43t58.5 -20q86 0 94 125h22q6 -51 -6 -93t-34.5 -72t-53 -46.5t-63.5 -16.5q-41 0 -76 20.5t-70 43.5q-33 23 -63.5 42t-61.5 19q-84 0 -100 -127h-22z" />
<glyph unicode="&#x2000;" horiz-adv-x="917" />
<glyph unicode="&#x2001;" horiz-adv-x="1835" />
<glyph unicode="&#x2002;" horiz-adv-x="917" />
<glyph unicode="&#x2003;" horiz-adv-x="1835" />
<glyph unicode="&#x2004;" horiz-adv-x="611" />
<glyph unicode="&#x2005;" horiz-adv-x="458" />
<glyph unicode="&#x2006;" horiz-adv-x="305" />
<glyph unicode="&#x2007;" horiz-adv-x="305" />
<glyph unicode="&#x2008;" horiz-adv-x="229" />
<glyph unicode="&#x2009;" horiz-adv-x="367" />
<glyph unicode="&#x200a;" horiz-adv-x="101" />
<glyph unicode="&#x2010;" horiz-adv-x="811" d="M72 350v103h667v-103h-667z" />
<glyph unicode="&#x2011;" horiz-adv-x="811" d="M72 350v103h667v-103h-667z" />
<glyph unicode="&#x2012;" horiz-adv-x="811" d="M72 350v103h667v-103h-667z" />
<glyph unicode="&#x2013;" horiz-adv-x="1024" d="M-12 465v90h1048v-90h-1048z" />
<glyph unicode="&#x2014;" horiz-adv-x="2048" d="M-12 465v90h2072v-90h-2072z" />
<glyph unicode="&#x2018;" horiz-adv-x="532" d="M139 1051q0 96 62.5 179t165.5 122l14 -37q-158 -92 -158 -205q0 -18 6.5 -30.5t22.5 -12.5q14 0 23.5 3t25.5 3q41 0 66.5 -25.5t25.5 -66.5t-31.5 -70.5t-78.5 -29.5q-61 0 -102.5 48t-41.5 122z" />
<glyph unicode="&#x2019;" horiz-adv-x="532" d="M139 1251q0 41 32 71t79 30q61 0 102 -48.5t41 -121.5q0 -96 -62.5 -179t-164.5 -122l-14 37q158 92 157 204q0 18 -6 30.5t-22 12.5q-14 0 -23.5 -3t-26.5 -3q-41 0 -66.5 25.5t-25.5 66.5z" />
<glyph unicode="&#x201a;" horiz-adv-x="532" d="M139 68q0 41 32 70.5t79 29.5q61 0 102 -48t41 -122q0 -96 -62.5 -179t-164.5 -122l-14 37q158 92 157 205q0 18 -6 30.5t-22 12.5q-14 0 -23.5 -3.5t-26.5 -3.5q-41 0 -66.5 26t-25.5 67z" />
<glyph unicode="&#x201c;" horiz-adv-x="980" d="M123 1051q0 96 62.5 179t164.5 122l15 -37q-158 -92 -158 -205q0 -18 6 -30.5t23 -12.5q14 0 23 3t26 3q41 0 66.5 -25.5t25.5 -66.5t-32 -70.5t-79 -29.5q-61 0 -102 48t-41 122zM588 1051q0 96 62.5 179t164.5 122l14 -37q-158 -92 -157 -205q0 -18 6 -30.5t22 -12.5 q14 0 23.5 3t26.5 3q41 0 66.5 -25.5t25.5 -66.5t-32 -70.5t-79 -29.5q-61 0 -102 48t-41 122z" />
<glyph unicode="&#x201d;" horiz-adv-x="980" d="M139 1251q0 41 32 71t79 30q61 0 102 -48.5t41 -121.5q0 -96 -62.5 -179t-164.5 -122l-14 37q158 92 157 204q0 18 -6 30.5t-22 12.5q-14 0 -23.5 -3t-26.5 -3q-41 0 -66.5 25.5t-25.5 66.5zM604 1251q0 41 32 71t79 30q61 0 102 -48.5t41 -121.5q0 -96 -62.5 -179 t-164.5 -122l-15 37q158 92 158 204q0 18 -6 30.5t-23 12.5q-14 0 -23 -3t-26 -3q-41 0 -66.5 25.5t-25.5 66.5z" />
<glyph unicode="&#x201e;" horiz-adv-x="980" d="M139 68q0 41 32 70.5t79 29.5q61 0 102 -48t41 -122q0 -96 -62.5 -179t-164.5 -122l-14 37q158 92 157 205q0 18 -6 30.5t-22 12.5q-14 0 -23.5 -3.5t-26.5 -3.5q-41 0 -66.5 26t-25.5 67zM604 68q0 41 32 70.5t79 29.5q61 0 102 -48t41 -122q0 -96 -62.5 -179 t-164.5 -122l-15 37q158 92 158 205q0 18 -6 30.5t-23 12.5q-14 0 -23 -3.5t-26 -3.5q-41 0 -66.5 26t-25.5 67z" />
<glyph unicode="&#x2022;" horiz-adv-x="724" d="M113 639q0 53 19.5 98t54 79t81 53.5t97.5 19.5q53 0 98 -19.5t78.5 -53.5t53 -79t19.5 -98q0 -51 -19.5 -97t-53 -81t-78.5 -54.5t-98 -19.5q-51 0 -97.5 19.5t-81 54.5t-54 81t-19.5 97z" />
<glyph unicode="&#x2026;" horiz-adv-x="2048" d="M238 72q0 43 29.5 69.5t74.5 26.5q43 0 73.5 -25.5t30.5 -70.5q0 -47 -30.5 -72t-73.5 -25q-45 0 -74.5 27t-29.5 70zM920 72q0 43 29.5 69.5t74.5 26.5q43 0 73.5 -25.5t30.5 -70.5q0 -47 -30.5 -72t-73.5 -25q-45 0 -74.5 27t-29.5 70zM1602 72q0 43 29.5 69.5 t74.5 26.5q43 0 73.5 -25.5t30.5 -70.5q0 -47 -30.5 -72t-73.5 -25q-45 0 -74.5 27t-29.5 70z" />
<glyph unicode="&#x202f;" horiz-adv-x="367" />
<glyph unicode="&#x2039;" horiz-adv-x="468" d="M70 449l301 376h37l-195 -376l195 -377h-37z" />
<glyph unicode="&#x203a;" horiz-adv-x="468" d="M61 72l195 377l-195 376h37l301 -376l-301 -377h-37z" />
<glyph unicode="&#x205f;" horiz-adv-x="458" />
<glyph unicode="&#x2122;" horiz-adv-x="2004" d="M31 1155l20 201h729l23 -201h-35q-12 78 -54 109.5t-139 31.5h-71v-581q0 -41 3 -65.5t14 -38t31.5 -19.5t53.5 -8v-35h-375v35q35 4 54.5 9t31 19.5t14.5 38t3 64.5v581h-80q-92 0 -132 -30.5t-56 -110.5h-35zM870 549v35q37 0 59.5 5t35 18.5t16.5 39t4 68.5v467 q0 47 -4 73.5t-16.5 41t-35 18.5t-59.5 4v37h289l273 -574l264 574h278v-37q-37 0 -58.5 -5t-32.5 -19.5t-14 -41t-3 -71.5v-467q0 -43 3 -67.5t14 -38t32.5 -18.5t58.5 -7v-35h-399v35q39 0 62.5 5t37 19.5t17.5 40t4 66.5v491h-4l-303 -657h-33l-305 649h-4v-483 q0 -82 18 -106.5t78 -24.5h37v-35h-310z" />
<glyph unicode="&#x25fc;" horiz-adv-x="808" d="M0 0v809h809v-809h-809z" />
<glyph unicode="&#xfb01;" horiz-adv-x="1130" d="M37 721v35q82 18 151 55q4 70 12.5 125t26 104.5t46 93.5t73.5 89q59 59 150.5 106t195.5 47q51 0 96.5 -12t78 -29.5t51 -38t18.5 -36.5q0 -10 -11.5 -23.5t-25.5 -26t-29.5 -21.5t-21.5 -9q-10 0 -30.5 18.5t-52.5 41t-73 40.5t-94 18q-49 0 -98 -21.5t-88 -61 t-62.5 -98t-23.5 -132.5v-174h260l12 -90h-272v-561q0 -72 32.5 -96.5t118.5 -24.5h64v-39h-492v39q45 0 71.5 6t42 21.5t20.5 43t5 70.5v541h-151zM666 0v39q47 0 74.5 8t42 25.5t18.5 46t4 69.5v412q0 31 -3 50.5t-13.5 31.5t-33 20.5t-59.5 16.5v35l215 90h31v-688 q0 -53 33 -85t115 -32v-39h-424z" />
<glyph unicode="&#xfb02;" d="M33 721v35q82 18 151 55q0 127 29 220t115 179q76 76 149.5 102.5t145.5 26.5q35 0 51 -2t26.5 -3t19.5 -3t28 -2q37 0 59 15.5t31 31.5h49v-1214q0 -123 119 -123h34v-39h-460v39q98 0 134 31.5t36 105.5v545h-428v-561q0 -72 32.5 -96.5t118.5 -24.5v-39h-428v39 q45 0 71.5 6t42 21.5t20.5 43t5 70.5v541h-151zM322 811h428v375q-35 27 -93.5 53.5t-113.5 26.5q-63 0 -106.5 -27t-69 -75t-35.5 -116.5t-10 -152.5v-84z" />
</font>
</defs>
</svg>
